<svg width="172" height="70" viewBox="0 0 172 70" fill="none" xmlns="http://www.w3.org/2000/svg"><path fill="#fff" d="M0 0h171.316v70H0z"/><path d="M7.383 8.274s8.546 1.658 16.28 4.619c.23.092.536.2.889.322.798.276 3.437 1.227 6.03 2.808.936.552 1.795 1.15 2.516 1.795 1.105.936 2.056 2.025 2.624 3.222.66 1.12 1.32 2.547 1.688 4.22.107.43.2.874.245 1.319.03.276.046.552.077.844.2 1.105.782 2.117 1.013 2.47.092.123.184.246.291.368.015.016.03.047.046.047h-.015c.337.398.752.751 1.258.981.138.046.26.108.414.154.108.015.276.061.507.092.291.03.705.077 1.15.092h.031c.123.015.245.015.368.015.092 0 .184.016.276.016 0 0 .415 0 .906.061.076.015.138.015.184.015.123.016.276.046.43.092.199.046.383.108.521.185.86.368 1.795 1.196 2.025 2.93 0 0-4.465-1.028-5.354 2.21-.031.26.015.506.076.72.369.814 1.657 2.594 6.368 5.463 0 0 2.869 1.995 5.11 3.99.06.06.122.137.214.214.276.276.614.614.982 1.028.92.982 2.01 2.302 2.593 3.514.307.49.598 1.028.89 1.58.49.905.967 1.903 1.35 2.961.69 1.596 1.32 3.391 1.734 5.248 0 .015.015.015.015.03V8.274H7.383z" fill="#C22134"/><path d="M61.054 61.853S57.893 55.84 53.09 50.96h-.015c-.015-.016-.046-.046-.046-.062a49.236 49.236 0 0 0-.905-.89c-3.53-2.992-12.797-7.595-12.797-7.595s.016 0 .016-.015c-1.443-.752-8.286-4.618-3.606-7.227 0 0 2.24-.736 3.652-.122 0 0 .2-3.652-5.156-3.453 0 0-2.73.154-3.958-2.67-.123-.368-.353-1.135-.43-1.825 0-1.734-.752-9.084-13.15-14.76 0 0-6.49-3.054-8.73-3.867-.199-.062-.598-.2-.598-.2v53.61H61.07c0-.015 0-.015-.015-.03z" fill="#055EA7"/><path d="M70.644 32.133c-1.304 0-3.115-.86-3.115-3.406 0-2.455 1.212-3.621 3.115-3.621h3.207v5.784h1.98v1.243h-5.187zm1.75-5.876H70.69c-1.35 0-1.672 1.534-1.672 2.47 0 .905.46 2.163 1.672 2.163h1.703v-4.633zm-2.272-3.898h1.443v1.397h-1.443v-1.397zm2.256 0h1.442v1.397h-1.442v-1.397z" fill="#0067AD"/><path d="M78.145 30.89h-2.838v1.243h2.838v-1.242z" fill="#0067AD"/><path d="M80.57 30.89h-2.838v1.243h2.839v-1.242z" fill="#0067AD"/><path d="M82.98 30.89h-2.84v1.243h2.84v-1.242z" fill="#0067AD"/><path d="M82.059 33.453H83.5v1.396h-1.442v-1.396zm.583-1.32v-1.242c1.35 0 1.964-.66 1.964-1.796v-4.004h1.457v4.066c-.015 1.856-1.304 2.976-3.421 2.976zm1.703 1.32h1.442v1.396h-1.442v-1.396zM91.756 32.133c-.767 0-1.396-.17-1.903-.445v.107c0 1.611-1.135 3.115-3.1 3.053v-1.135c.553-.03 1.167-.399 1.412-.982.292-.583.23-1.335.23-1.749v-5.877h1.458v4.435c0 .874.752 1.35 1.903 1.35h.169v1.243h-.17z" fill="#0067AD"/><path d="M101.943 32.134c-.89 0-1.642-.23-2.179-.614-.49 1.273-1.519 1.98-3.007 1.98-1.458 0-2.486-.676-2.977-1.888-.506.353-1.181.522-2.025.522h-.26V30.89h.26c.997-.016 1.596-.384 1.657-1.29.123-2.255 1.35-3.65 3.345-3.65 1.948 0 3.176 1.303 3.253 3.513 0 .92.736 1.427 1.918 1.427h.276v1.243h-.261zm-5.186-5.048c-1.197 0-1.765.874-1.765 2.623 0 1.688.568 2.563 1.765 2.563 1.181 0 1.78-.875 1.78-2.532 0-1.78-.568-2.654-1.78-2.654z" fill="#0067AD"/><path d="M104.536 30.89h-2.839v1.243h2.839v-1.242z" fill="#0067AD"/><path d="M106.946 30.89h-2.839v1.243h2.839v-1.242z" fill="#0067AD"/><path d="M109.354 30.89h-2.838v1.243h2.838v-1.242z" fill="#0067AD"/><path d="M108.939 32.133V30.89h5.555c0-4.695-4.327-4.48-4.327-4.48v-1.166c3.989 0 5.769 2.578 5.769 5.646h2.179v1.243h-9.176z" fill="#0067AD"/><path d="M117.594 32.134V30.89c1.35 0 2.04-.66 2.04-1.795v-6.751h1.458v6.812c-.015 1.857-1.381 2.977-3.498 2.977zM122.719 29.157v-6.798h1.442l-.015 6.751c0 1.12.69 1.796 2.025 1.796v1.242c-2.117-.015-3.452-1.135-3.452-2.992z" fill="#0067AD"/><path d="M125.834 32.133v-1.242c1.35 0 1.964-.66 1.964-1.796v-4.004h1.442v4.066c0 1.856-1.273 2.976-3.406 2.976zm1.857 1.32h1.426v1.396h-1.426v-1.396zM137.034 32.133c-2.04 0-3.237-1.089-3.237-3.467 0-2.302 1.243-3.56 3.237-3.56 2.01 0 3.238 1.258 3.238 3.606 0 2.347-1.166 3.421-3.238 3.421zm-1.795-9.758h1.412v1.396h-1.412v-1.396zm1.795 3.836c-1.166 0-1.733.706-1.733 2.455 0 1.672.567 2.225 1.733 2.225 1.166 0 1.765-.553 1.765-2.194.015-1.78-.568-2.486-1.765-2.486zm.461-3.836h1.411v1.396h-1.411v-1.396zM145.994 32.133c-.767 0-1.396-.17-1.902-.445v.107c0 1.611-1.136 3.115-3.1 3.053v-1.135c.553-.03 1.166-.399 1.412-.982.291-.583.23-1.335.23-1.749v-5.877h1.442v4.435c0 .874.767 1.35 1.903 1.35h.169v1.243h-.154z" fill="#0067AD"/><path d="M148.587 30.89h-2.839v1.243h2.839v-1.242z" fill="#0067AD"/><path d="M148.158 32.133V30.89h5.554c0-4.695-4.342-4.48-4.342-4.48v-1.166c4.005 0 5.769 2.578 5.769 5.646h2.179v1.243h-9.16z" fill="#0067AD"/><path d="M156.812 32.134V30.89c1.351 0 2.041-.66 2.041-1.795v-6.751h1.442v6.812c.016 1.857-1.35 2.977-3.483 2.977zM163.38 22.36h-1.442v9.788h1.442V22.36zM70.566 18.447c-1.289 0-3.115-.86-3.115-3.406 0-2.44 1.212-3.606 3.115-3.606h3.191v5.769h1.964v1.243h-5.155zm1.734-5.861h-1.703c-1.35 0-1.673 1.534-1.673 2.455 0 .905.46 2.163 1.673 2.163H72.3v-4.618zm-2.256-3.898h1.427v1.397h-1.427V8.688zm2.24 0h1.427v1.397h-1.427V8.688z" fill="#0067AD"/><path d="M78.038 17.204h-2.823v1.243h2.823v-1.243z" fill="#0067AD"/><path d="M80.448 17.204h-2.823v1.243h2.823v-1.243z" fill="#0067AD"/><path d="M82.843 17.204h-2.824v1.243h2.824v-1.243z" fill="#0067AD"/><path d="M88.519 18.447c-.66 0-1.32-.108-1.903-.276a6.665 6.665 0 0 1-1.917.276h-2.271v-1.243h2.531c-1.012-.813-1.84-1.949-1.657-3.253.23-1.411 1.304-2.516 3.314-2.516 1.98 0 3.054 1.105 3.3 2.516.199 1.304-.645 2.44-1.642 3.253h2.516v1.243h-2.271zm-1.903-5.923c-.95 0-1.703.568-1.84 1.412-.2 1.243.674 2.24 1.84 2.838 1.167-.598 2.041-1.595 1.826-2.838-.138-.844-.905-1.412-1.825-1.412zm-1.81-3.836h1.412v1.397h-1.412V8.688zm2.255 0h1.427v1.397h-1.427V8.688z" fill="#0067AD"/><path d="M90.467 18.447v-1.258h1.058V9.655h1.443l-.2 5.278v.031c.737-1.504 2.072-3.207 4.22-3.207 2.163 0 3.084 1.703 3.084 3.084 0 .63-.184 1.596-.767 2.348h2.132v1.243h-10.97v.015zm6.475-5.539c-2.578 0-3.652 3.237-4.036 4.28h3.667c1.55 0 2.056-1.18 2.056-2.393 0-.844-.49-1.887-1.687-1.887z" fill="#0067AD"/><path d="M106.271 18.447c-1.135-.015-2.025-.338-2.593-.951-.537.613-1.381.95-2.501.95h-.245v-1.242h.245c1.074 0 1.719-.552 1.719-1.473v-4.296h1.442v4.342c0 .92.736 1.427 1.933 1.427h.261v1.243h-.261zm-3.391-9.759h1.443V10.1h-1.443V8.688z" fill="#0067AD"/><path d="M116.411 18.447c-.89 0-1.627-.23-2.164-.613-.491 1.273-1.519 1.979-2.991 1.979-1.443 0-2.471-.675-2.962-1.887-.506.337-1.181.521-2.025.521h-.246v-1.242h.246c.997-.016 1.596-.384 1.642-1.29.122-2.24 1.35-3.636 3.329-3.636 1.949 0 3.161 1.305 3.238 3.499 0 .92.736 1.426 1.918 1.426h.26v1.243h-.245zm-5.155-5.032c-1.197 0-1.765.874-1.765 2.608 0 1.672.568 2.547 1.765 2.547 1.181 0 1.779-.875 1.779-2.516 0-1.78-.567-2.64-1.779-2.64z" fill="#0067AD"/><path d="M116.184 18.447v-1.258c1.35 0 2.04-.66 2.04-1.78v-6.72h1.443v6.781c0 1.841-1.366 2.977-3.483 2.977zM122.733 8.688h-1.442v9.759h1.442V8.688zM130.374 18.447c-1.288 0-3.114-.86-3.114-3.406 0-2.44 1.212-3.606 3.114-3.606h3.192v5.769h1.964v1.243h-5.156zm1.75-5.861h-1.704c-1.35 0-1.657 1.534-1.657 2.455 0 .905.445 2.163 1.657 2.163h1.704v-4.618zm-2.271-3.898h1.427v1.397h-1.427V8.688zm2.255 0h1.427v1.397h-1.427V8.688z" fill="#0067AD"/><path d="M137.849 17.204h-2.824v1.243h2.824v-1.243z" fill="#0067AD"/><path d="M140.257 17.204h-2.823v1.243h2.823v-1.243z" fill="#0067AD"/><path d="M142.665 17.204h-2.823v1.243h2.823v-1.243z" fill="#0067AD"/><path d="M142.004 10.1v-.828h.859v-.17c0-.413.092-1.733 1.565-1.733.829 0 1.212.384 1.473 1.043h-1.028c-.123-.168-.199-.276-.43-.276-.537 0-.613.522-.613.936v.2h2.255v.828h-4.081zm5.585 8.347c-1.151-.015-2.041-.337-2.593-.951-.537.614-1.396.951-2.501.951h-.169v-1.258h.169c1.074 0 1.718-.552 1.718-1.473V11.42h1.443v4.342c0 .92.736 1.427 1.933 1.427h.245v1.243h-.245v.015z" fill="#0067AD"/><path d="M150.153 17.204h-2.823v1.243h2.823v-1.243z" fill="#0067AD"/><path d="M149.461 19.75h1.442v1.397h-1.442V19.75zm5.631-1.303c-1.151-.016-2.041-.338-2.593-.952-.537.614-1.396.951-2.501.951h-.246v-1.242h.246c1.074 0 1.718-.553 1.718-1.473v-4.296h1.443v4.342c0 .92.736 1.427 1.933 1.427h.245v1.242h-.245zm-3.345 1.304h1.427v1.396h-1.427V19.75z" fill="#0067AD"/><path d="M154.832 18.447v-1.242h1.181v-2.9c0-1.842.952-3.084 3.008-3.33V9.778h1.427v1.197c2.056.246 3.007 1.488 3.007 3.33V18.447h-8.623zm4.189-6.29c-.89.153-1.565.69-1.565 2.148v2.9h1.565v-5.048zm2.992 2.148c0-1.458-.675-1.995-1.565-2.149v5.033h1.565v-2.884zM67.558 40.772h3.36v4.541h4.327v-4.541h3.36v12.136h-2.807c-.583 0-.553-.368-.553-.614V48.29h-4.327v4.004c0 .23-.168.614-.629.614h-2.746V40.772h.015zM84.96 40.68h3.237l5.17 12.228H90.53c-.629 0-.89-.306-1.012-.613-.092-.2-.63-1.55-.63-1.55h-4.679s-.46 1.166-.614 1.55c-.153.398-.567.613-.951.613h-2.854l5.17-12.228zm2.946 7.441l-1.35-3.452-1.366 3.452h2.716zM94.549 40.772h3.56l2.899 4.695 2.9-4.695h3.56v12.136h-2.7c-.538 0-.645-.353-.645-.614v-6.367l-3.099 4.756h-.077l-3.084-4.725v6.336c0 .292-.138.614-.614.614h-2.685V40.772h-.015zM109.6 40.772h5.738c1.857 0 3.145.49 3.959 1.319.705.69 1.074 1.626 1.074 2.823v.03c0 1.857-.982 3.085-2.501 3.73l2.9 4.234h-3.115c-.767 0-1.166-.598-1.166-.598l-2.041-3.084H112.975v3.068c0 .292-.077.614-.69.614h-2.67V40.772h-.015zm5.585 5.83c1.15 0 1.81-.552 1.81-1.442v-.046c0-.952-.69-1.443-1.826-1.443h-2.209v2.916h2.225v.015zM122.152 40.772h3.376V52.31c0 .414-.368.613-.66.613h-2.716V40.772zM131.249 48.366l-4.618-7.594h3.836l2.501 4.418 2.516-4.418h3.759l-4.618 7.548v4.603h-2.747c-.521 0-.629-.306-.629-.613v-3.944zM142.573 40.68h3.238l5.17 12.228h-2.884c-.737 0-.967-.598-.967-.598l-.644-1.565h-4.68l-.629 1.565s-.307.614-.936.614h-2.839l5.171-12.244zm2.946 7.441l-1.35-3.452-1.366 3.452h2.716zM152.162 40.772h3.36v4.541h4.327v-4.541h3.36v12.136h-2.67c-.598 0-.705-.353-.705-.614V48.29h-4.327v4.004c0 .17-.046.614-.675.614h-2.686V40.772h.016zM67.559 56.621h4.173v1.274h-2.731v.874h2.47v1.197h-2.47v1.856h-1.442v-5.2zM72.636 56.621h2.455c.798 0 1.35.215 1.688.568.307.291.46.706.46 1.212v.015c0 .798-.43 1.32-1.074 1.596l1.243 1.81h-1.672l-1.044-1.58h-.629v1.58h-1.442v-5.2h.015zm2.394 2.501c.491 0 .767-.23.767-.614v-.015c0-.414-.291-.614-.782-.614h-.952v1.243h.967zM78.223 56.621h4.188v1.228h-2.746v.782h2.486v1.15h-2.486v.814h2.792v1.227h-4.234v-5.2zM83.44 56.621h4.188v1.228h-2.762v.782h2.501v1.15h-2.5v.814h2.792v1.227h-4.22v-5.2zM90.805 60.78l2.608-2.931h-2.516V56.62h4.51v1.059L92.8 60.61h2.609v1.212h-4.603V60.78zM96.006 59.245c0-1.504 1.197-2.716 2.808-2.716 1.611 0 2.792 1.197 2.792 2.685v.016c0 1.488-1.212 2.7-2.808 2.7-1.61 0-2.792-1.197-2.792-2.685zm4.127 0c0-.767-.537-1.411-1.335-1.411-.782 0-1.32.644-1.32 1.396v.015c0 .752.538 1.412 1.336 1.412.798-.031 1.319-.66 1.319-1.412zM102.619 56.621h1.335l2.148 2.762V56.62h1.427v5.201h-1.258l-2.225-2.853v2.853h-1.427v-5.2zM108.695 56.621h4.189v1.228h-2.746v.782h2.485v1.15h-2.485v.814h2.792v1.227h-4.235v-5.2zM118.024 56.59h1.396l2.209 5.248h-1.549l-.384-.936h-2.01l-.368.936h-1.519l2.225-5.247zm1.258 3.192l-.583-1.473-.583 1.473h1.166zM122.121 59.552v-2.916h1.458v2.885c0 .752.383 1.105.951 1.105s.967-.338.967-1.074v-2.93h1.457v2.884c0 1.687-.951 2.424-2.439 2.424-1.473 0-2.394-.752-2.394-2.378zM129.346 57.895h-1.565V56.62h4.573v1.274h-1.565v3.927h-1.443v-3.927zM133.229 56.621h1.442v1.949h1.856V56.62h1.443v5.201h-1.443v-1.964h-1.856v1.965h-1.442V56.62zM138.969 59.245c0-1.504 1.197-2.716 2.808-2.716 1.611 0 2.792 1.197 2.792 2.685v.016c0 1.488-1.212 2.7-2.808 2.7-1.611 0-2.792-1.197-2.792-2.685zm4.127 0c0-.767-.537-1.411-1.335-1.411-.782 0-1.319.644-1.319 1.396v.015c0 .752.537 1.412 1.335 1.412.797-.031 1.319-.66 1.319-1.412zM145.564 56.621h2.471c.798 0 1.35.215 1.688.568.306.291.46.706.46 1.212v.015c0 .798-.43 1.32-1.074 1.596l1.243 1.81h-1.658l-1.043-1.58h-.629v1.58h-1.442v-5.2h-.016zm2.409 2.501c.491 0 .768-.23.768-.614v-.015c0-.414-.292-.614-.783-.614h-.936v1.243h.951zM152.638 56.621h-1.443v5.201h1.443v-5.2zM155.124 57.895h-1.565V56.62h4.572v1.274h-1.565v3.927h-1.442v-3.927zM160.509 59.874l-1.98-3.253h1.657l1.059 1.903 1.089-1.903h1.612l-1.98 3.237v1.965h-1.457v-1.95z" fill="#0067AD"/></svg>