<?xml version="1.0" encoding="utf-8"?>
<!-- Generator: Adobe Illustrator 22.0.0, SVG Export Plug-In . SVG Version: 6.00 Build 0)  -->
<svg version="1.1" id="Layer_1" xmlns="http://www.w3.org/2000/svg" xmlns:xlink="http://www.w3.org/1999/xlink" x="0px" y="0px"
	 viewBox="0 0 526.9 143.3" style="enable-background:new 0 0 526.9 143.3;" xml:space="preserve">
<style type="text/css">
	.st0{fill:#6D6E70;}
	.st1{fill:#1277BD;}
</style>
<g>
	<path class="st0" d="M155.5,60.5h4.3v8.1c2.9-4.7,7-9.1,15.1-9.1c7.9,0,12.8,4.5,15.2,9.8c2.9-5.1,7.8-9.8,16.3-9.8
		c10.7,0,17.4,7.5,17.4,18.9v27.4h-4.3V78.8c0-9.8-5.1-15.4-13.4-15.4c-7.6,0-14.3,5.9-14.3,16v26.3h-4.3V78.5
		c0-9.4-5.1-15.2-13.2-15.2s-14.4,7.1-14.4,16.2v26.1h-4.3V60.5z"/>
	<path class="st0" d="M266.3,60.5h4.8l-19.6,46.8c-4,9.5-8.6,12.9-15.1,12.9c-3.5,0-5.9-0.6-9-2l1.5-3.8c2.4,1.2,4.3,1.7,7.7,1.7
		c4.7,0,7.8-2.7,11.2-10.6l-21.7-44.9h5.1l18.8,40.4L266.3,60.5z"/>
	<path class="st0" d="M279.2,74.1v-0.2c0-17.5,13.1-32.8,32.4-32.8s32.3,15.1,32.3,32.6v0.2c0,17.5-13.1,32.8-32.4,32.8
		S279.2,91.6,279.2,74.1z M336.5,74.1v-0.2c0-14.4-10.5-26.2-25-26.2s-24.8,11.6-24.8,26v0.2c0,14.4,10.5,26.2,25,26.2
		S336.5,88.5,336.5,74.1z"/>
	<path class="st0" d="M355,65h-6.4v-6.1h6.4v-4.1c0-5.3,1.5-9.4,4.1-12.1c2.4-2.4,5.8-3.6,10.1-3.6c3.3,0,5.4,0.4,7.7,1.2v6.1
		c-2.5-0.7-4.4-1.2-6.8-1.2c-5.4,0-8.2,3.3-8.2,10V59h14.9v6H362v40.7h-7V65z M388.4,65H382v-6.1h6.4v-4.1c0-5.3,1.4-9.4,4-12.1
		c2.4-2.4,5.8-3.6,10.1-3.6c3.3,0,5.5,0.4,7.7,1.2v6.1c-2.4-0.7-4.4-1.2-6.7-1.2c-5.5,0-8.2,3.3-8.2,10V59h14.8v6h-14.8v40.7h-6.9
		V65z M419.2,40.9h7.9v7.7h-7.9V40.9z M419.7,58.8h7v46.9h-7V58.8z"/>
	<path class="st0" d="M434.5,82.5v-0.2c0-13.2,10.3-24.5,24-24.5c8.9,0,14.4,3.7,18.8,8.3l-4.6,4.9c-3.7-3.9-7.9-7.1-14.2-7.1
		c-9.5,0-16.8,8.1-16.8,18.1v0.2c0,10.2,7.4,18.2,17.2,18.2c6,0,10.6-3,14.3-7l4.4,4.2c-4.7,5.3-10.3,9.1-19.1,9.1
		C444.9,106.8,434.5,95.6,434.5,82.5z"/>
	<path class="st0" d="M480.9,82.4v-0.2c0-13.5,9.5-24.4,22.5-24.4c13.9,0,21.8,11.1,21.8,24.7c0,0.9,0,1.5-0.1,2.3h-37.2
		c1,10.2,8.2,15.9,16.5,15.9c6.4,0,11-2.6,14.8-6.6l4.4,3.9c-4.7,5.3-10.4,8.8-19.3,8.8C491.4,106.8,480.9,96.9,480.9,82.4z
		 M518.1,79.7c-0.7-8.5-5.6-16-15-16c-8.2,0-14.3,6.8-15.2,16H518.1z"/>
</g>
<g>
	<path class="st0" d="M13.9,3.9c0,0,80,8.3,88,12.3c0.3,3.7,1,15.7,1,15.7s-47.3,7-48.3,7.7c-0.3,1.7-6.3,88.3-5.3,101.7
		c-11.3,0-46.3,0-46.3,0S1.6,47.9,13.9,3.9z"/>
	<path class="st1" d="M125.3,32.2c0,0,11.7,45,8,108.3c-4.7,0-80.7,0-80.7,0s5-88,5.3-98C64.3,42.2,125.3,32.2,125.3,32.2z"/>
</g>
</svg>
