<svg xmlns="http://www.w3.org/2000/svg" xmlns:xlink="http://www.w3.org/1999/xlink" viewBox="0 0 1186.93 1528.77"><defs><style>.cls-1{fill:url(#linear-gradient);}.cls-2{fill:url(#linear-gradient-2);}.cls-3{fill:url(#linear-gradient-3);}.cls-4{fill:url(#linear-gradient-4);}.cls-5{fill:url(#linear-gradient-5);}.cls-6{fill:url(#linear-gradient-6);}.cls-7{fill:#073e61;fill-rule:evenodd;}.cls-8{fill:#41c0be;}</style><linearGradient id="linear-gradient" x1="688.32" y1="8.97" x2="1118.14" y2="753.44" gradientUnits="userSpaceOnUse"><stop offset="0" stop-color="#8dd3d3"/><stop offset="1" stop-color="#00b3ae"/></linearGradient><linearGradient id="linear-gradient-2" x1="375.89" y1="221.55" x2="68.8" y2="753.44" gradientUnits="userSpaceOnUse"><stop offset="0" stop-color="#86d3e6"/><stop offset="1" stop-color="#00ade5"/></linearGradient><linearGradient id="linear-gradient-3" x1="1186.93" y1="756.3" x2="617.89" y2="756.3" xlink:href="#linear-gradient"/><linearGradient id="linear-gradient-4" x1="0" y1="756.3" x2="323.73" y2="756.3" xlink:href="#linear-gradient-2"/><linearGradient id="linear-gradient-5" x1="290.18" y1="814.35" x2="721.55" y2="67.2" xlink:href="#linear-gradient"/><linearGradient id="linear-gradient-6" x1="651.19" y1="814.36" x2="342.66" y2="279.98" xlink:href="#linear-gradient-2"/></defs><title>RAK Logo</title><g id="Layer_2" data-name="Layer 2"><g id="Layer_1-2" data-name="Layer 1"><path class="cls-1" d="M720.72,0a67,67,0,0,0-57,100.55l58.07,100.56,0-.06,281.91,488.23H1119.9a67,67,0,0,1,56.31,30.64L780,33.75c.19.33.33.7.51,1-.23-.41-.43-.84-.67-1.25A67,67,0,0,0,722.77,0Z"/><path class="cls-2" d="M342.23,212.55a67.08,67.08,0,0,0-60.1,37.58L10.73,719.92A67,67,0,0,1,67,689.28H183.14L342.39,413.7l0-.06,57.2-99.12a67,67,0,0,0-57.28-102h0"/><path class="cls-3" d="M1003.78,689.28H656.47l-.06.05,17.67,30.45a67,67,0,0,1-56.19,103.55h502a67,67,0,0,0,0-134.05Z"/><path class="cls-4" d="M183.14,689.28H67a67,67,0,0,0-.32,134h257a67,67,0,0,1-56.3-103.41l17.49-30.64Z"/><path class="cls-5" d="M470.69,367.85l-77.37,134L285.11,689.28h-.19l-17.49,30.66a67,67,0,1,0,115.27,68.3l.13-.3,87.85-152.06,77.39-134.07L721.8,201l-56.44-97.79a67,67,0,0,1-1.76-69.41Z"/><path class="cls-6" d="M409.38,279.78A66.77,66.77,0,0,1,398.72,316l-56.38,97.7,51,88.24,77.36,134,88,152.36a67,67,0,0,0,58.94,35.09c37,0,67.32-30,67.32-67a66.91,66.91,0,0,0-10.84-36.39l-17.67-30.66h0L548.07,501.81l-77.38-134L400.61,246.52a66.72,66.72,0,0,1,8.77,33.26"/><path class="cls-7" d="M317.87,907.53H228.46V960.2h88.8v0a34.37,34.37,0,0,1,34.37,34.37v34H244.23a86.1,86.1,0,0,0,0,172.19H397.68a6.3,6.3,0,0,0,6.28-6.31V993.62A86.09,86.09,0,0,0,317.87,907.53Zm33.83,235a6.28,6.28,0,0,1-6.3,6.3H245.27a34.38,34.38,0,1,1,0-68.76H351.7Z"/><path class="cls-7" d="M197.63,960.2V907.52H86.09A86.09,86.09,0,0,0,0,993.61v200.83a6.29,6.29,0,0,0,6.28,6.31h46V994.53a34.38,34.38,0,0,1,34.39-34.36v0Z"/><path class="cls-7" d="M1186.91,907.58H940.84v46a6.29,6.29,0,0,0,6.31,6.29h168.34L941,1148.4l-.13,52.34h239.79a6.28,6.28,0,0,0,6.28-6.3v-46H1012.67l174.24-188.5Z"/><path class="cls-7" d="M823.9,1079.74a86.08,86.08,0,1,0,0-172.16H750.26a86.08,86.08,0,0,0-86.08,86.09v121a86.08,86.08,0,0,0,86.08,86.09H910v-52.68H750.88v0a34.37,34.37,0,0,1-34.38-34.36v-34Zm-107.45-51.48V993.89h0a34.39,34.39,0,0,1,34.38-34.37h72a34.37,34.37,0,0,1,0,68.74Z"/><path class="cls-7" d="M584.43,907.52l-97.3,105.1v-98.8a6.28,6.28,0,0,0-6.27-6.3H434.8v286.92a6.31,6.31,0,0,0,6.29,6.31h46v-105l97,105h71.71l-135.64-146.5L655.87,907.52Z"/><path class="cls-8" d="M34.84,1360.9q-1.44-1.89-3-3.64c-1-1.18-2.05-2.32-3.14-3.45s-2.34-2.37-3.76-3.71q25.48-1.74,25.49-24.86a27,27,0,0,0-3-12.62,20.24,20.24,0,0,0-8.28-8.73,27.42,27.42,0,0,0-9-3.07,80,80,0,0,0-13.44-.94H0v88.65H11.93V1350l29,38.56H56.25L38.05,1365C36.88,1363.54,35.8,1362.15,34.84,1360.9Zm-22.91-18.58v-32.14h5.65a44.7,44.7,0,0,1,9.17.75,15.44,15.44,0,0,1,5.65,2.25q5.9,4.15,5.9,12.56,0,8.79-5,12.69t-16.58,3.89Z"/><path class="cls-8" d="M134.48,1327.12q-1.38-4.51-3-9.29c-1-3.18-2.13-6.33-3.26-9.48s-2.24-6-3.33-8.47H111.75q-3.25,8.65-6.65,19.15t-6.28,20.53l-14.32,49H97.31l5.53-19.71h30.88l5.53,19.71h12.81l-15.19-53.36Q135.85,1331.65,134.48,1327.12Zm-29.25,32.15,13-47.59,13.06,47.59Z"/><path class="cls-8" d="M188.53,1334.48a38,38,0,0,0,6.09,6.08,107.23,107.23,0,0,0,9.42,6.71q4.52,2.87,7.47,5.2a30.08,30.08,0,0,1,4.7,4.45,12.8,12.8,0,0,1,2.45,4.26,15,15,0,0,1,.69,4.64,11.49,11.49,0,0,1-4.14,9.4c-2.76,2.25-6.65,3.39-11.67,3.39a58.76,58.76,0,0,1-8.66-.61,65.23,65.23,0,0,1-9-2v10.81q5.64,1.38,10,2a67.23,67.23,0,0,0,9.54.64q12.56,0,19.65-6.08t7.1-16.74a24.65,24.65,0,0,0-1.07-7.33,23,23,0,0,0-3.39-6.65,38.16,38.16,0,0,0-6.09-6.39,82.45,82.45,0,0,0-9.05-6.58q-4.63-2.9-7.65-5.21a36.24,36.24,0,0,1-4.83-4.33,11.57,11.57,0,0,1-2.52-4,13,13,0,0,1-.69-4.27q0-5.77,3.83-8.9t10.86-3.13a48.62,48.62,0,0,1,18.33,3.64v-11.31q-7.78-3.14-19.34-3.13a33.33,33.33,0,0,0-10.73,1.63,25.07,25.07,0,0,0-8.29,4.57,20.12,20.12,0,0,0-5.33,7.09,21.77,21.77,0,0,0-1.89,9.15,23.76,23.76,0,0,0,1,6.89A18.73,18.73,0,0,0,188.53,1334.48Z"/><path class="cls-8" d="M372.79,1335.16q-1-3.51-2.39-8t-2.95-9.29c-1.05-3.18-2.13-6.33-3.26-9.48s-2.24-6-3.33-8.47H347.68q-3.27,8.65-6.66,19.15t-6.27,20.53l-14.32,49h12.8l5.53-19.71h30.89l5.52,19.71H388Zm-31.64,24.11,13.06-47.59,13.05,47.59Z"/><polygon class="cls-8" points="436.82 1299.88 424.64 1299.88 424.64 1388.52 467.83 1388.52 467.83 1377.73 436.82 1377.73 436.82 1299.88"/><path class="cls-8" d="M597.25,1355.25c-1.39-1.93-2.62-3.55-3.71-4.89a42.85,42.85,0,0,0-3-3.39c-.93-.93-2-1.89-3.15-2.9.93-1,1.83-2,2.71-3.07s1.84-2.23,2.89-3.58,2.21-2.92,3.51-4.77,2.83-4.06,4.59-6.65l17.7-26.12H605l-28.38,41.93v-41.93h-11.8v88.64h11.8v-41.94l29.26,41.94H621l-18.46-25.86C600.41,1359.64,598.63,1357.18,597.25,1355.25Z"/><polygon class="cls-8" points="702.78 1388.52 714.7 1388.52 714.7 1299.88 702.78 1299.88 702.78 1337.42 669.38 1337.42 669.38 1299.88 657.45 1299.88 657.45 1388.52 669.38 1388.52 669.38 1347.97 702.78 1347.97 702.78 1388.52"/><path class="cls-8" d="M800.83,1327.12q-1.37-4.51-3-9.29c-1-3.18-2.13-6.33-3.26-9.48s-2.24-6-3.33-8.47H778.11q-3.27,8.65-6.66,19.15t-6.27,20.53l-14.32,49h12.81l5.53-19.71h30.88l5.53,19.71h12.81l-15.2-53.36Q802.21,1331.65,800.83,1327.12Zm-29.25,32.15,13.06-47.59,13.06,47.59Z"/><rect class="cls-8" x="855.08" y="1299.88" width="11.93" height="88.64"/><path class="cls-8" d="M944.23,1388.52h11.68l16.69-58.26,1.32-5c.46-1.71.9-3.29,1.32-4.71q.63-2.52,1.38-4.9l3.39,72.82h12.06L989.55,1346q-.37-5.78-.81-12.37t-.94-12.87q-.51-6.27-1.13-11.74c-.42-3.63-.88-6.67-1.38-9.1H970.47l-15.57,54.24c-.5,1.76-1,3.68-1.63,5.78s-1.09,4-1.51,5.77c-.5,2.18-1,4.27-1.5,6.28-.59-2.09-1.13-4.23-1.64-6.4-.42-1.84-.9-3.75-1.45-5.71s-1-3.79-1.43-5.47l-15.33-54.49H915.48q-.51,2.88-1.2,8.79t-1.38,12.8c-.46,4.61-.87,9.19-1.26,13.75s-.65,8.36-.81,11.36l-2.63,41.94h12l3.9-72.57c.41,1.34.79,2.76,1.13,4.27.33,1.34.71,2.86,1.13,4.58s.92,3.5,1.5,5.33Z"/><path class="cls-8" d="M1074.68,1368.81l5.53,19.71H1093l-15.2-53.36q-1-3.51-2.39-8t-3-9.29c-1-3.18-2.13-6.33-3.26-9.48s-2.24-6-3.33-8.47h-13.18q-3.27,8.65-6.66,19.15t-6.27,20.53l-14.32,49h12.8l5.53-19.71Zm-15.44-57.13,13,47.59h-26.11Z"/><polygon class="cls-8" points="1175 1388.52 1186.93 1388.52 1186.93 1299.88 1175 1299.88 1175 1337.42 1141.61 1337.42 1141.61 1299.88 1129.67 1299.88 1129.67 1388.52 1141.61 1388.52 1141.61 1347.97 1175 1347.97 1175 1388.52"/><polygon class="cls-8" points="0 1527.26 43.83 1527.26 43.83 1516.47 11.93 1516.47 11.93 1487.21 41.44 1487.21 41.44 1477.41 11.93 1477.41 11.93 1449.42 43.83 1449.42 43.83 1438.62 0 1438.62 0 1527.26"/><path class="cls-8" d="M121.67,1517.35a22.21,22.21,0,0,1-10.55-2.52,24.17,24.17,0,0,1-8.16-7A34,34,0,0,1,97.69,1497a48.21,48.21,0,0,1-1.89-13.94,50.69,50.69,0,0,1,1.82-14,33.9,33.9,0,0,1,5.21-10.93,24.37,24.37,0,0,1,8-7.09,21.36,21.36,0,0,1,10.29-2.52,31.46,31.46,0,0,1,7.79.89,37.82,37.82,0,0,1,7.78,3v-11.17a32,32,0,0,0-7.71-3,37.31,37.31,0,0,0-8.6-.88,33.63,33.63,0,0,0-15.14,3.39,34.74,34.74,0,0,0-11.74,9.48,45.81,45.81,0,0,0-7.66,14.5,59.7,59.7,0,0,0-2.76,18.59,57.93,57.93,0,0,0,2.76,18.32,43.71,43.71,0,0,0,7.73,14.26,34.41,34.41,0,0,0,27.05,12.62,37.19,37.19,0,0,0,8.54-.94,43.78,43.78,0,0,0,8.54-3.08v-10.8a47.59,47.59,0,0,1-8.35,2.83A36,36,0,0,1,121.67,1517.35Z"/><path class="cls-8" d="M235.49,1450a33,33,0,0,0-11-9.41,29.56,29.56,0,0,0-14.05-3.39,28.88,28.88,0,0,0-13.94,3.45,33.21,33.21,0,0,0-11,9.61,47.16,47.16,0,0,0-7.16,14.68,64.52,64.52,0,0,0-2.58,18.72,61.51,61.51,0,0,0,2.58,18.33,44.55,44.55,0,0,0,7.22,14.25,32.6,32.6,0,0,0,11.11,9.22,31.12,31.12,0,0,0,14.25,3.27,28.67,28.67,0,0,0,13.81-3.39,33.65,33.65,0,0,0,10.86-9.41,44.74,44.74,0,0,0,7.1-14.45,64.58,64.58,0,0,0,2.51-18.58,63,63,0,0,0-2.57-18.45A45.76,45.76,0,0,0,235.49,1450Zm-4.39,46.65a37,37,0,0,1-4.52,11.11,22.64,22.64,0,0,1-7,7.22,16.5,16.5,0,0,1-9,2.57,17.54,17.54,0,0,1-9-2.44,21.34,21.34,0,0,1-7-6.91,36.22,36.22,0,0,1-4.52-10.68,53.84,53.84,0,0,1-1.64-13.73,58.84,58.84,0,0,1,1.64-14.32,38.26,38.26,0,0,1,4.58-11.24,23,23,0,0,1,7-7.34,16.11,16.11,0,0,1,9-2.65,17.38,17.38,0,0,1,9.1,2.45,21.76,21.76,0,0,1,7,6.85,34.46,34.46,0,0,1,4.46,10.73,58.64,58.64,0,0,1,1.57,14A61.39,61.39,0,0,1,231.1,1496.69Z"/><polygon class="cls-8" points="333.36 1509.43 303.11 1438.62 288.79 1438.62 288.79 1527.26 300.59 1527.26 299.85 1457.45 329.85 1527.26 344.42 1527.26 344.42 1438.62 332.62 1438.62 333.36 1509.43"/><path class="cls-8" d="M447.69,1450a33.13,33.13,0,0,0-11-9.41,29.57,29.57,0,0,0-14.06-3.39,28.91,28.91,0,0,0-13.94,3.45,33.17,33.17,0,0,0-11,9.61,46.73,46.73,0,0,0-7.16,14.68A64.52,64.52,0,0,0,388,1483.7a61.51,61.51,0,0,0,2.58,18.33,44.54,44.54,0,0,0,7.21,14.25,32.54,32.54,0,0,0,11.12,9.22,31.09,31.09,0,0,0,14.25,3.27,28.73,28.73,0,0,0,13.81-3.39,33.75,33.75,0,0,0,10.86-9.41,45,45,0,0,0,7.1-14.45,64.93,64.93,0,0,0,2.51-18.58,62.61,62.61,0,0,0-2.58-18.45A45.53,45.53,0,0,0,447.69,1450Zm-4.4,46.65a36.71,36.71,0,0,1-4.52,11.11,22.72,22.72,0,0,1-7,7.22,16.53,16.53,0,0,1-9,2.57,17.59,17.59,0,0,1-9-2.44,21.44,21.44,0,0,1-7-6.91,36.49,36.49,0,0,1-4.52-10.68,53.86,53.86,0,0,1-1.63-13.73,58.86,58.86,0,0,1,1.63-14.32,38,38,0,0,1,4.59-11.24,23,23,0,0,1,7-7.34,16.14,16.14,0,0,1,9-2.65,17.39,17.39,0,0,1,9.11,2.45,21.86,21.86,0,0,1,7,6.85,34.69,34.69,0,0,1,4.45,10.73,58.13,58.13,0,0,1,1.57,14A60.86,60.86,0,0,1,443.29,1496.69Z"/><path class="cls-8" d="M578.52,1472.32q-.43-6.58-.94-12.86t-1.13-11.74c-.43-3.64-.88-6.67-1.39-9.1H560.24l-15.56,54.24c-.5,1.76-1,3.68-1.64,5.78s-1.08,4-1.5,5.76c-.5,2.19-1,4.28-1.5,6.29-.59-2.09-1.13-4.23-1.64-6.4-.42-1.85-.9-3.75-1.45-5.72s-1-3.78-1.43-5.46l-15.33-54.49H505.26q-.51,2.88-1.2,8.79t-1.38,12.8q-.69,6.9-1.26,13.75c-.37,4.57-.65,8.36-.81,11.36L498,1527.26h12l3.9-72.58c.41,1.35.79,2.77,1.13,4.28.33,1.34.71,2.86,1.13,4.58s.91,3.5,1.5,5.33L534,1527.26h11.68l16.7-58.26q.63-2.38,1.32-5t1.32-4.72c.42-1.67.87-3.3,1.38-4.89l3.39,72.82h12.05l-2.51-42.56Q579,1478.91,578.52,1472.32Z"/><rect class="cls-8" x="626.41" y="1438.61" width="11.93" height="88.64"/><path class="cls-8" d="M720.46,1517.35a22.2,22.2,0,0,1-10.54-2.52,24.17,24.17,0,0,1-8.16-7,34.06,34.06,0,0,1-5.28-10.79,48.22,48.22,0,0,1-1.88-13.94,50.69,50.69,0,0,1,1.82-14,33.9,33.9,0,0,1,5.21-10.93,24.27,24.27,0,0,1,8-7.09,21.33,21.33,0,0,1,10.29-2.52,31.46,31.46,0,0,1,7.79.89,38,38,0,0,1,7.78,3v-11.17a32.1,32.1,0,0,0-7.72-3,37.31,37.31,0,0,0-8.6-.88,33.66,33.66,0,0,0-15.14,3.39,34.61,34.61,0,0,0-11.73,9.48,45.61,45.61,0,0,0-7.66,14.5,59.41,59.41,0,0,0-2.76,18.59,57.64,57.64,0,0,0,2.76,18.32,43.5,43.5,0,0,0,7.72,14.26,34.45,34.45,0,0,0,27.06,12.62,37.25,37.25,0,0,0,8.54-.94,44,44,0,0,0,8.54-3.08v-10.8a47.59,47.59,0,0,1-8.35,2.83A36.05,36.05,0,0,1,720.46,1517.35Z"/><path class="cls-8" d="M887.91,1448.1a42.21,42.21,0,0,0,2.07-9.48H839V1449h35.79l-30.89,54.63c-1.68,3-3.09,5.64-4.27,7.91s-2.13,4.31-2.89,6.15a36.7,36.7,0,0,0-1.69,5,23.33,23.33,0,0,0-.69,4.51h54.37v-10.55H850.55l32.28-57.88A65.1,65.1,0,0,0,887.91,1448.1Z"/><path class="cls-8" d="M986.85,1450a33.13,33.13,0,0,0-11-9.41,29.56,29.56,0,0,0-14.05-3.39,28.86,28.86,0,0,0-13.94,3.45,33.21,33.21,0,0,0-11,9.61,47,47,0,0,0-7.16,14.68,64.52,64.52,0,0,0-2.58,18.72,61.51,61.51,0,0,0,2.58,18.33,44.35,44.35,0,0,0,7.22,14.25,32.6,32.6,0,0,0,11.11,9.22,31.12,31.12,0,0,0,14.25,3.27,28.67,28.67,0,0,0,13.81-3.39A33.65,33.65,0,0,0,987,1516a44.74,44.74,0,0,0,7.1-14.45,64.58,64.58,0,0,0,2.51-18.58,63,63,0,0,0-2.57-18.45A45.76,45.76,0,0,0,986.85,1450Zm-4.39,46.65a36.72,36.72,0,0,1-4.53,11.11,22.51,22.51,0,0,1-7,7.22,16.5,16.5,0,0,1-9,2.57,17.54,17.54,0,0,1-9-2.44,21.25,21.25,0,0,1-7-6.91,36.22,36.22,0,0,1-4.52-10.68,53.84,53.84,0,0,1-1.64-13.73,58.84,58.84,0,0,1,1.64-14.32,38.26,38.26,0,0,1,4.58-11.24,23,23,0,0,1,7-7.34,16.11,16.11,0,0,1,9-2.65,17.38,17.38,0,0,1,9.1,2.45,21.76,21.76,0,0,1,7,6.85,34.46,34.46,0,0,1,4.46,10.73,58.66,58.66,0,0,1,1.56,14A61.41,61.41,0,0,1,982.46,1496.69Z"/><polygon class="cls-8" points="1084.72 1509.43 1054.46 1438.62 1040.15 1438.62 1040.15 1527.26 1051.95 1527.26 1051.2 1457.45 1081.21 1527.26 1095.78 1527.26 1095.78 1438.62 1083.97 1438.62 1084.72 1509.43"/><polygon class="cls-8" points="1186.93 1449.42 1186.93 1438.62 1143.11 1438.62 1143.11 1527.26 1186.93 1527.26 1186.93 1516.47 1155.04 1516.47 1155.04 1487.21 1184.55 1487.21 1184.55 1477.41 1155.04 1477.41 1155.04 1449.42 1186.93 1449.42"/></g></g></svg>