<svg id="b1d13164-4424-4e45-b6bc-c907342e34b6" data-name="Layer 1" xmlns="http://www.w3.org/2000/svg" xmlns:xlink="http://www.w3.org/1999/xlink" viewBox="0 0 372.82 159.25"><defs><style>.e48af064-f5cb-46c6-9c71-365aea97a74c{fill:#e30613;}.a25ed1b3-98eb-4402-a42f-d0df1a39494a{fill:url(#ae26571d-f098-4df1-83c2-38ea46501d39);}.b705b509-921e-4712-9909-0e6e4d556ffb{fill:url(#eec0baf7-b196-42db-ba13-c40532cfc378);}.a0710499-30e8-427e-a9cc-e12f79efcb50{fill:url(#ab5a7749-4c39-4e73-a21b-3a80dc08df8e);}.bdc74cf7-6370-4e52-adb8-e342a187e9d2{fill:url(#b06a7858-e1b1-4767-9973-45bab8eddd8a);}.ece4b292-88ad-40da-9c2e-4f9b701f3492{fill:url(#ebe26ce0-7544-4169-800f-a3d9dc1b9002);}.b79516f7-0361-458d-a475-10d2547e63ae{fill:url(#eebe0253-0e57-4003-ac22-cf5ed4a95aa5);}.e8a1a060-47bf-4349-9608-27d2ee62fcba{fill:url(#a6de1d95-3069-43cd-97f9-a792f6ccb173);}.ba339d75-0dfd-4152-bdb1-92c76a8230ec{fill:url(#a92e81d4-e89a-4e05-8ccb-a81076b99908);}.addf2a51-a382-4833-b1b1-dcd8d1d77179{fill:url(#bc0dea6e-d7dd-4533-9a1e-b3f2afa397b3);}.e92a1ee1-a9ee-41d2-ad08-809dc3bc1b24{fill:url(#b1664b00-d4c7-43aa-b2d3-0e64a71a92d1);}.edf75e17-34b2-4a3f-b885-999207106ba0{fill:url(#b160847d-a428-482e-94ed-db290726c4e3);}.a12af873-e5da-439e-8ec5-0fdbff30b1fa{fill:url(#b1aed762-c385-48d2-88a5-bf41c8f7e37d);}.b22d4b9d-e770-4901-9107-ef9e89a336e3{fill:url(#b737f497-9e5b-473d-b370-ae93c33dc7cc);}.a068b956-517c-470d-b501-fe227147df39{fill:url(#a25f3666-49e0-49cb-9be5-9890ac57a7de);}.a9622754-281f-47b1-898d-d317cdc997fa{fill:url(#afc8a6f7-7f59-40f1-9374-f9e3085c3642);}.b75b0a59-a6bd-4b2b-8b0d-0057cc8e7ac5{fill:url(#e348461b-773c-471d-980e-09fc97bcf56c);}.b576ba0b-85c1-4751-a950-ed298e7ff2e9{fill:url(#f16067d8-4c85-488b-bbdc-4d9981990377);}.ee348482-3ffa-4aa0-9c32-0c88526040b0{fill:url(#ac882cbf-faa8-4b6f-8e87-517544f4cb0b);}.f0c090d3-a7f3-4162-ab58-b7b9fe09c266{fill:url(#a795c2a5-fc66-4173-9885-f25e3fc9a0d4);}.ae1d7f52-4d3c-44ca-96a0-1a501e986c78{fill:url(#a9684698-7238-411d-8256-5a3dbe9b7169);}.ac631777-25ec-412d-b747-45d12eb752b6{fill:url(#acfae340-a567-4006-b53c-cb000ee434c6);}.b0c10aa5-28a6-4bf3-83cc-ad0460563d2f{fill:url(#e10bdc3e-a059-4d7e-9498-b88bbcf9923e);}.a577c8d2-e496-4c13-95fc-44d9fac31fed{fill:url(#a735bd43-5d6d-46b1-b155-4adb895d0764);}.b3c78dda-9c7b-4a7a-a154-0bfadf9eb739{fill:url(#a424b9f2-1096-4ba5-8190-b7551b10a783);}.b242fbf8-62b2-4700-a8af-72214c08d915{fill:url(#e63926b4-d1b2-454a-93e2-94e14c23854a);}.a8593266-49b5-4b34-826e-edde7d2212ab{fill:url(#e1256a02-ccf2-474e-97a0-391324de3d73);}.edc626d6-6822-4394-8c0d-6bbbe604824b{fill:url(#bcdf1f91-d9fb-4625-99a6-3f5e220b968b);}.abc7f422-b5b4-4ff3-903a-58818111465a{fill:url(#e46a1e2d-1a7d-486e-a77c-7a471ddb7790);}.ac1c0bd2-1cb2-4737-a519-993d4c23cccc{fill:url(#a1c0ab43-a0cd-44cf-8d6a-23dedb0574e4);}.a87b053b-27f3-4c07-8b02-6562c7831002{fill:url(#aa83d39d-53d5-4a50-9f59-89f831d13780);}.a2ab786a-129b-43d6-8825-fb9c0c432cf0{fill:url(#f45a7cbb-981a-4b4e-8481-ec4c2c135fe7);}.a7239bfd-387a-4a98-84ec-fd956c198866{fill:url(#b05545e5-1b44-42e5-9641-3e0e05d73f32);}.e57bc741-03f4-438a-a475-a4ef9cf1731a{fill:url(#ac54e151-fb4b-48a9-9e37-39aa0aaca2b3);}.f783be88-f44f-40fd-864d-c433143d63c5{fill:url(#a2b317d3-337c-4174-8851-14831d339a9c);}.b94f215c-b565-4e8e-98aa-2fea15b15f43{fill:url(#a20b0b74-2408-4d57-ba3f-2a8b5518ed00);}.a82ccd7b-884c-4930-ba4b-56644b91849d{fill:url(#baae4af1-bfd1-48f7-9c73-7e88da3787a2);}.fe59ced5-ecc3-4fbf-8428-4436aac5ed55{fill:url(#fd3122e9-1db3-4dd2-bf2f-a3323459128b);}.a37b45bb-860f-4253-a54d-867cdd61b322{fill:url(#bd1c400e-0329-4d93-adc8-5ceb43b65df7);}.ba20bc62-37bb-4bcd-8ba0-aedaa8b87c3e{fill:url(#e07da554-e3e6-4869-9918-374e123f4fde);}.fc8ab8cc-7fe0-4496-8c93-6e7115381c30{fill:url(#a47f0748-d54a-462e-af0f-7cbf489eedcf);}.f5548f4e-9705-4325-95fb-b39f4f51d29c{fill:url(#b6c4f05a-a786-4fbb-8bdc-d5182b868da1);}.bff488b3-fc08-47e2-8083-3fb80e8dd230{fill:url(#be31d2a1-69ed-4bf9-b901-51cd9bf2e325);}.bfd25534-cb6d-41fd-b7de-1c7534f57b67{fill:url(#a2ea815c-d267-4efe-81e4-a8eb9cbf178e);}.b7b2c636-2423-4e08-b6f3-62c47b4c02c0{fill:url(#aef914b6-3244-49a6-9811-8576a66168da);}.e025256f-06a9-4774-a96a-62df5db6c5b2{fill:url(#ba78494e-7fb8-47d8-b538-895e6a5796c8);}.a8cf8438-38ea-4ac9-bcda-3becff4d35d0{fill:url(#bc4b3085-b18f-4805-bfdc-179871b4ea6a);}.f7e3427c-04d6-425c-ac30-4824545248c9{fill:url(#eb775a7e-2c4b-4234-8c77-8b2ca1f341c5);}.a7657828-2895-42e9-8e14-67e424947bf3{fill:url(#f2088274-1a02-4559-908d-67e6f5f27aa1);}.ec455124-b4ab-457d-a20c-805ca6576f50{fill:url(#a0d74410-a39a-4fdb-b755-592efdc63597);}.b056270f-7f27-436a-b20f-5fec8db6e07e{fill:url(#b8ab870c-a24b-46b4-ab15-87ba87551eab);}.e682c670-09a4-44ee-9872-5bf2fa168659{fill:url(#b7261426-2912-4d07-a351-6d3975d86575);}.f50bc602-ce65-4bad-9f16-23aed14b9c85{fill:url(#b2b77fe5-a17b-4c2e-a970-a4801b774c23);}.e5188ee8-c08b-4257-bda2-4dd42e6f3a51{fill:url(#af06ebe4-17c2-4cf5-893c-789f7e4a1a36);}.b65486cc-8293-4771-8e05-833360d7b9d4{fill:url(#a75da158-00ab-4383-b1cd-0e2fa4422590);}.eca8e4d2-dcec-4b6e-8d81-2b83d5732889{fill:url(#b015ff12-28f1-4380-89d9-c2e28bfbc465);}.f0bb3409-aecb-4648-83a3-757171cd5baf{fill:url(#e3d26e2f-fc9c-4fb0-8d76-605728437773);}.a580c1b0-bfb0-45fd-a444-d4ae76b54387{fill:url(#a012b9f1-703d-493e-87a9-8abb835e5441);}.b52f7041-6367-41fe-8e1e-c1cead34870d{fill:url(#ec1a333d-977a-49ab-94eb-5f883b7808f2);}.f01ae681-4fcd-445a-8e75-4bcbe834b224{fill:url(#fcf6b578-b38b-44c9-85c4-75885ddb1744);}.a76cf59e-c365-477d-b01e-e770f83a4c6d{fill:url(#b917f44e-1948-4bf7-8876-56b17b2e2ea9);}.e45aa7c1-8954-472e-a20d-83b1807564ba{fill:url(#a2041a8d-5d52-42ff-a1f8-4b4bd6904d4d);}.f8da3a49-729c-4fe6-b1da-fde72d095b0e{fill:url(#fbebb995-51c2-498e-aa61-f20aa3f19b9e);}.ecef54a7-c64a-4f35-8503-72744d0959cb{fill:url(#e828d8e3-3b3f-4489-9927-9c0f836601b2);}.afd7c4d4-e075-42d9-8e69-210571940e6d{fill:url(#b754a625-a84f-4c69-b02e-c3548e511de0);}.a4c5b23b-99d6-4d83-a795-fc1a73214c06{fill:url(#b0c0c996-5402-42d1-b9bd-2bbf8c0dbc71);}.f3bf7e6f-d01a-4474-9d6e-b2799ccd6d66{fill:url(#ed7d443f-8f74-4e01-ac5a-80e57a10989c);}.f0b8b6c8-3101-4336-ae8d-2f8319305cbb{fill:url(#a1d06fda-bfe1-43f4-92d8-99ad455cc674);}.ec2b4b99-e013-4971-a18c-162bf2e3a88d{fill:url(#bb778f99-1308-4461-a7d5-f213df4b7112);}.b7842545-2c00-42a8-a205-189fe4f98839{fill:url(#eb6a876a-8513-4216-8f8c-6b696b059685);}.be082e24-c5a8-4a8c-a761-7a08b2e57b3f{fill:url(#a0adcf01-9607-4701-8f41-98d77b3bc0b5);}.ab450729-4701-4046-8d24-5370d2deea60{fill:url(#b430025c-82c1-497d-8358-361772959963);}.ad738a62-e645-4962-b972-6e4306d7ca33{fill:url(#a901902c-4987-4fae-98e3-23cb54b5fda6);}.a7d09259-f780-4341-9281-6a759dc18d80{fill:url(#a8a1f537-e4b0-466a-a59d-a7ab7b7d0a93);}.f5fb4d5c-f490-49d3-b2b0-8638048b281f{fill:url(#f3376df4-456e-4b93-b00d-81ac0399dc32);}.bf2463ea-4421-416c-8a7e-efe112e22955{fill:url(#ac94aa1f-81eb-4f3c-b086-50e9cbdaed0a);}.eb626f98-24ac-48cd-8ad6-5d170a30a093{fill:url(#b276ebe3-d026-45ff-9ebc-f9dcc95a72cc);}.e8d2df9f-7bd6-4a2f-bbd7-7f86b5ce832f{fill:url(#b4dc11eb-17ed-445e-9e54-a3035ce382b5);}</style><linearGradient id="ae26571d-f098-4df1-83c2-38ea46501d39" x1="413.51" y1="44.51" x2="320.42" y2="137.6" gradientUnits="userSpaceOnUse"><stop offset="0" stop-color="#f39200"/><stop offset="1" stop-color="#e30613"/></linearGradient><linearGradient id="eec0baf7-b196-42db-ba13-c40532cfc378" x1="439.69" y1="70.7" x2="346.61" y2="163.79" xlink:href="#ae26571d-f098-4df1-83c2-38ea46501d39"/><linearGradient id="ab5a7749-4c39-4e73-a21b-3a80dc08df8e" x1="433.04" y1="64.05" x2="339.95" y2="157.13" xlink:href="#ae26571d-f098-4df1-83c2-38ea46501d39"/><linearGradient id="b06a7858-e1b1-4767-9973-45bab8eddd8a" x1="419.38" y1="50.38" x2="326.29" y2="143.47" xlink:href="#ae26571d-f098-4df1-83c2-38ea46501d39"/><linearGradient id="ebe26ce0-7544-4169-800f-a3d9dc1b9002" x1="426.5" y1="57.5" x2="333.41" y2="150.59" xlink:href="#ae26571d-f098-4df1-83c2-38ea46501d39"/><linearGradient id="eebe0253-0e57-4003-ac22-cf5ed4a95aa5" x1="412.85" y1="43.85" x2="319.76" y2="136.94" xlink:href="#ae26571d-f098-4df1-83c2-38ea46501d39"/><linearGradient id="a6de1d95-3069-43cd-97f9-a792f6ccb173" x1="420.26" y1="51.26" x2="327.17" y2="144.35" xlink:href="#ae26571d-f098-4df1-83c2-38ea46501d39"/><linearGradient id="a92e81d4-e89a-4e05-8ccb-a81076b99908" x1="423" y1="54" x2="329.91" y2="147.09" xlink:href="#ae26571d-f098-4df1-83c2-38ea46501d39"/><linearGradient id="bc0dea6e-d7dd-4533-9a1e-b3f2afa397b3" x1="420.44" y1="51.44" x2="327.35" y2="144.53" xlink:href="#ae26571d-f098-4df1-83c2-38ea46501d39"/><linearGradient id="b1664b00-d4c7-43aa-b2d3-0e64a71a92d1" x1="443.2" y1="74.2" x2="350.11" y2="167.29" xlink:href="#ae26571d-f098-4df1-83c2-38ea46501d39"/><linearGradient id="b160847d-a428-482e-94ed-db290726c4e3" x1="393.8" y1="24.81" x2="300.72" y2="117.89" xlink:href="#ae26571d-f098-4df1-83c2-38ea46501d39"/><linearGradient id="b1aed762-c385-48d2-88a5-bf41c8f7e37d" x1="445.11" y1="76.11" x2="352.02" y2="169.2" xlink:href="#ae26571d-f098-4df1-83c2-38ea46501d39"/><linearGradient id="b737f497-9e5b-473d-b370-ae93c33dc7cc" x1="390.99" y1="22" x2="297.9" y2="115.08" xlink:href="#ae26571d-f098-4df1-83c2-38ea46501d39"/><linearGradient id="a25f3666-49e0-49cb-9be5-9890ac57a7de" x1="387.99" y1="18.99" x2="294.9" y2="112.08" xlink:href="#ae26571d-f098-4df1-83c2-38ea46501d39"/><linearGradient id="afc8a6f7-7f59-40f1-9374-f9e3085c3642" x1="447.08" y1="78.08" x2="353.99" y2="171.17" xlink:href="#ae26571d-f098-4df1-83c2-38ea46501d39"/><linearGradient id="e348461b-773c-471d-980e-09fc97bcf56c" x1="384.71" y1="15.72" x2="291.62" y2="108.8" xlink:href="#ae26571d-f098-4df1-83c2-38ea46501d39"/><linearGradient id="f16067d8-4c85-488b-bbdc-4d9981990377" x1="449.14" y1="80.15" x2="356.05" y2="173.23" xlink:href="#ae26571d-f098-4df1-83c2-38ea46501d39"/><linearGradient id="ac882cbf-faa8-4b6f-8e87-517544f4cb0b" x1="381.04" y1="12.05" x2="287.96" y2="105.14" xlink:href="#ae26571d-f098-4df1-83c2-38ea46501d39"/><linearGradient id="a795c2a5-fc66-4173-9885-f25e3fc9a0d4" x1="451.37" y1="82.37" x2="358.28" y2="175.46" xlink:href="#ae26571d-f098-4df1-83c2-38ea46501d39"/><linearGradient id="a9684698-7238-411d-8256-5a3dbe9b7169" x1="453.89" y1="84.89" x2="360.8" y2="177.98" xlink:href="#ae26571d-f098-4df1-83c2-38ea46501d39"/><linearGradient id="acfae340-a567-4006-b53c-cb000ee434c6" x1="376.83" y1="7.84" x2="283.74" y2="100.92" xlink:href="#ae26571d-f098-4df1-83c2-38ea46501d39"/><linearGradient id="e10bdc3e-a059-4d7e-9498-b88bbcf9923e" x1="456.94" y1="87.95" x2="363.85" y2="181.03" xlink:href="#ae26571d-f098-4df1-83c2-38ea46501d39"/><linearGradient id="a735bd43-5d6d-46b1-b155-4adb895d0764" x1="372.01" y1="3.01" x2="278.92" y2="96.1" xlink:href="#ae26571d-f098-4df1-83c2-38ea46501d39"/><linearGradient id="a424b9f2-1096-4ba5-8190-b7551b10a783" x1="367.29" y1="-1.71" x2="274.2" y2="91.38" xlink:href="#ae26571d-f098-4df1-83c2-38ea46501d39"/><linearGradient id="e63926b4-d1b2-454a-93e2-94e14c23854a" x1="460.97" y1="91.98" x2="367.89" y2="185.07" xlink:href="#ae26571d-f098-4df1-83c2-38ea46501d39"/><linearGradient id="e1256a02-ccf2-474e-97a0-391324de3d73" x1="365.92" y1="-3.07" x2="272.84" y2="90.02" xlink:href="#ae26571d-f098-4df1-83c2-38ea46501d39"/><linearGradient id="bcdf1f91-d9fb-4625-99a6-3f5e220b968b" x1="466.13" y1="97.13" x2="373.04" y2="190.22" xlink:href="#ae26571d-f098-4df1-83c2-38ea46501d39"/><linearGradient id="e46a1e2d-1a7d-486e-a77c-7a471ddb7790" x1="467.9" y1="98.9" x2="374.81" y2="191.99" xlink:href="#ae26571d-f098-4df1-83c2-38ea46501d39"/><linearGradient id="a1c0ab43-a0cd-44cf-8d6a-23dedb0574e4" x1="370.73" y1="1.73" x2="277.64" y2="94.82" xlink:href="#ae26571d-f098-4df1-83c2-38ea46501d39"/><linearGradient id="aa83d39d-53d5-4a50-9f59-89f831d13780" x1="377.46" y1="8.46" x2="284.37" y2="101.55" xlink:href="#ae26571d-f098-4df1-83c2-38ea46501d39"/><linearGradient id="f45a7cbb-981a-4b4e-8481-ec4c2c135fe7" x1="465.52" y1="96.52" x2="372.43" y2="189.61" xlink:href="#ae26571d-f098-4df1-83c2-38ea46501d39"/><linearGradient id="b05545e5-1b44-42e5-9641-3e0e05d73f32" x1="381.81" y1="12.81" x2="288.72" y2="105.9" xlink:href="#ae26571d-f098-4df1-83c2-38ea46501d39"/><linearGradient id="ac54e151-fb4b-48a9-9e37-39aa0aaca2b3" x1="461.59" y1="92.6" x2="368.51" y2="185.68" xlink:href="#ae26571d-f098-4df1-83c2-38ea46501d39"/><linearGradient id="a2b317d3-337c-4174-8851-14831d339a9c" x1="384.98" y1="15.99" x2="291.9" y2="109.08" xlink:href="#ae26571d-f098-4df1-83c2-38ea46501d39"/><linearGradient id="a20b0b74-2408-4d57-ba3f-2a8b5518ed00" x1="457.82" y1="88.83" x2="364.74" y2="181.91" xlink:href="#ae26571d-f098-4df1-83c2-38ea46501d39"/><linearGradient id="baae4af1-bfd1-48f7-9c73-7e88da3787a2" x1="387.59" y1="18.6" x2="294.51" y2="111.69" xlink:href="#ae26571d-f098-4df1-83c2-38ea46501d39"/><linearGradient id="fd3122e9-1db3-4dd2-bf2f-a3323459128b" x1="454.46" y1="85.47" x2="361.37" y2="178.55" xlink:href="#ae26571d-f098-4df1-83c2-38ea46501d39"/><linearGradient id="bd1c400e-0329-4d93-adc8-5ceb43b65df7" x1="389.91" y1="20.91" x2="296.82" y2="114" xlink:href="#ae26571d-f098-4df1-83c2-38ea46501d39"/><linearGradient id="e07da554-e3e6-4869-9918-374e123f4fde" x1="451.43" y1="82.43" x2="358.34" y2="175.52" xlink:href="#ae26571d-f098-4df1-83c2-38ea46501d39"/><linearGradient id="a47f0748-d54a-462e-af0f-7cbf489eedcf" x1="392.08" y1="23.08" x2="298.99" y2="116.17" xlink:href="#ae26571d-f098-4df1-83c2-38ea46501d39"/><linearGradient id="b6c4f05a-a786-4fbb-8bdc-d5182b868da1" x1="448.6" y1="79.61" x2="355.52" y2="172.7" xlink:href="#ae26571d-f098-4df1-83c2-38ea46501d39"/><linearGradient id="be31d2a1-69ed-4bf9-b901-51cd9bf2e325" x1="445.91" y1="76.92" x2="352.83" y2="170.01" xlink:href="#ae26571d-f098-4df1-83c2-38ea46501d39"/><linearGradient id="a2ea815c-d267-4efe-81e4-a8eb9cbf178e" x1="394.17" y1="25.17" x2="301.08" y2="118.26" xlink:href="#ae26571d-f098-4df1-83c2-38ea46501d39"/><linearGradient id="aef914b6-3244-49a6-9811-8576a66168da" x1="396.24" y1="27.24" x2="303.15" y2="120.33" xlink:href="#ae26571d-f098-4df1-83c2-38ea46501d39"/><linearGradient id="ba78494e-7fb8-47d8-b538-895e6a5796c8" x1="443.3" y1="74.3" x2="350.21" y2="167.39" xlink:href="#ae26571d-f098-4df1-83c2-38ea46501d39"/><linearGradient id="bc4b3085-b18f-4805-bfdc-179871b4ea6a" x1="398.31" y1="29.32" x2="305.22" y2="122.4" xlink:href="#ae26571d-f098-4df1-83c2-38ea46501d39"/><linearGradient id="eb775a7e-2c4b-4234-8c77-8b2ca1f341c5" x1="440.74" y1="71.75" x2="347.66" y2="164.83" xlink:href="#ae26571d-f098-4df1-83c2-38ea46501d39"/><linearGradient id="f2088274-1a02-4559-908d-67e6f5f27aa1" x1="400.41" y1="31.41" x2="307.32" y2="124.5" xlink:href="#ae26571d-f098-4df1-83c2-38ea46501d39"/><linearGradient id="a0d74410-a39a-4fdb-b755-592efdc63597" x1="438.27" y1="69.28" x2="345.19" y2="162.37" xlink:href="#ae26571d-f098-4df1-83c2-38ea46501d39"/><linearGradient id="b8ab870c-a24b-46b4-ab15-87ba87551eab" x1="402.56" y1="33.56" x2="309.47" y2="126.65" xlink:href="#ae26571d-f098-4df1-83c2-38ea46501d39"/><linearGradient id="b7261426-2912-4d07-a351-6d3975d86575" x1="435.83" y1="66.83" x2="342.74" y2="159.92" xlink:href="#ae26571d-f098-4df1-83c2-38ea46501d39"/><linearGradient id="b2b77fe5-a17b-4c2e-a970-a4801b774c23" x1="404.79" y1="35.8" x2="311.71" y2="128.89" xlink:href="#ae26571d-f098-4df1-83c2-38ea46501d39"/><linearGradient id="af06ebe4-17c2-4cf5-893c-789f7e4a1a36" x1="433.36" y1="64.36" x2="340.27" y2="157.45" xlink:href="#ae26571d-f098-4df1-83c2-38ea46501d39"/><linearGradient id="a75da158-00ab-4383-b1cd-0e2fa4422590" x1="430.81" y1="61.81" x2="337.72" y2="154.9" xlink:href="#ae26571d-f098-4df1-83c2-38ea46501d39"/><linearGradient id="b015ff12-28f1-4380-89d9-c2e28bfbc465" x1="407.17" y1="38.17" x2="314.08" y2="131.26" xlink:href="#ae26571d-f098-4df1-83c2-38ea46501d39"/><linearGradient id="e3d26e2f-fc9c-4fb0-8d76-605728437773" x1="428.12" y1="59.12" x2="335.03" y2="152.21" xlink:href="#ae26571d-f098-4df1-83c2-38ea46501d39"/><linearGradient id="a012b9f1-703d-493e-87a9-8abb835e5441" x1="409.79" y1="40.8" x2="316.71" y2="133.88" xlink:href="#ae26571d-f098-4df1-83c2-38ea46501d39"/><linearGradient id="ec1a333d-977a-49ab-94eb-5f883b7808f2" x1="412.94" y1="43.94" x2="319.85" y2="137.03" xlink:href="#ae26571d-f098-4df1-83c2-38ea46501d39"/><linearGradient id="fcf6b578-b38b-44c9-85c4-75885ddb1744" x1="425.11" y1="56.12" x2="332.02" y2="149.2" xlink:href="#ae26571d-f098-4df1-83c2-38ea46501d39"/><linearGradient id="b917f44e-1948-4bf7-8876-56b17b2e2ea9" x1="416.99" y1="47.99" x2="323.9" y2="141.08" xlink:href="#ae26571d-f098-4df1-83c2-38ea46501d39"/><linearGradient id="a2041a8d-5d52-42ff-a1f8-4b4bd6904d4d" x1="421.4" y1="52.41" x2="328.31" y2="145.49" xlink:href="#ae26571d-f098-4df1-83c2-38ea46501d39"/><linearGradient id="fbebb995-51c2-498e-aa61-f20aa3f19b9e" x1="417.13" y1="48.13" x2="324.04" y2="141.22" xlink:href="#ae26571d-f098-4df1-83c2-38ea46501d39"/><linearGradient id="e828d8e3-3b3f-4489-9927-9c0f836601b2" x1="421.59" y1="52.6" x2="328.51" y2="145.69" xlink:href="#ae26571d-f098-4df1-83c2-38ea46501d39"/><linearGradient id="b754a625-a84f-4c69-b02e-c3548e511de0" x1="413.19" y1="44.2" x2="320.1" y2="137.28" xlink:href="#ae26571d-f098-4df1-83c2-38ea46501d39"/><linearGradient id="b0c0c996-5402-42d1-b9bd-2bbf8c0dbc71" x1="425.87" y1="56.87" x2="332.78" y2="149.96" xlink:href="#ae26571d-f098-4df1-83c2-38ea46501d39"/><linearGradient id="ed7d443f-8f74-4e01-ac5a-80e57a10989c" x1="409.93" y1="40.93" x2="316.84" y2="134.02" xlink:href="#ae26571d-f098-4df1-83c2-38ea46501d39"/><linearGradient id="a1d06fda-bfe1-43f4-92d8-99ad455cc674" x1="429.42" y1="60.42" x2="336.33" y2="153.51" xlink:href="#ae26571d-f098-4df1-83c2-38ea46501d39"/><linearGradient id="bb778f99-1308-4461-a7d5-f213df4b7112" x1="432.36" y1="63.36" x2="339.27" y2="156.45" xlink:href="#ae26571d-f098-4df1-83c2-38ea46501d39"/><linearGradient id="eb6a876a-8513-4216-8f8c-6b696b059685" x1="407.03" y1="38.03" x2="313.94" y2="131.12" xlink:href="#ae26571d-f098-4df1-83c2-38ea46501d39"/><linearGradient id="a0adcf01-9607-4701-8f41-98d77b3bc0b5" x1="404.31" y1="35.31" x2="311.22" y2="128.4" xlink:href="#ae26571d-f098-4df1-83c2-38ea46501d39"/><linearGradient id="b430025c-82c1-497d-8358-361772959963" x1="434.91" y1="65.91" x2="341.82" y2="159" xlink:href="#ae26571d-f098-4df1-83c2-38ea46501d39"/><linearGradient id="a901902c-4987-4fae-98e3-23cb54b5fda6" x1="401.67" y1="32.68" x2="308.58" y2="125.76" xlink:href="#ae26571d-f098-4df1-83c2-38ea46501d39"/><linearGradient id="a8a1f537-e4b0-466a-a59d-a7ab7b7d0a93" x1="437.2" y1="68.21" x2="344.12" y2="161.29" xlink:href="#ae26571d-f098-4df1-83c2-38ea46501d39"/><linearGradient id="f3376df4-456e-4b93-b00d-81ac0399dc32" x1="439.32" y1="70.32" x2="346.23" y2="163.41" xlink:href="#ae26571d-f098-4df1-83c2-38ea46501d39"/><linearGradient id="ac94aa1f-81eb-4f3c-b086-50e9cbdaed0a" x1="399.08" y1="30.08" x2="305.99" y2="123.17" xlink:href="#ae26571d-f098-4df1-83c2-38ea46501d39"/><linearGradient id="b276ebe3-d026-45ff-9ebc-f9dcc95a72cc" x1="396.47" y1="27.48" x2="303.39" y2="120.57" xlink:href="#ae26571d-f098-4df1-83c2-38ea46501d39"/><linearGradient id="b4dc11eb-17ed-445e-9e54-a3035ce382b5" x1="441.3" y1="72.3" x2="348.21" y2="165.39" xlink:href="#ae26571d-f098-4df1-83c2-38ea46501d39"/></defs><path class="e48af064-f5cb-46c6-9c71-365aea97a74c" d="M57.93,103.46a10.06,10.06,0,0,1,.16-1.9,3.56,3.56,0,0,1,.6-1.48,2.91,2.91,0,0,1,1.19-1,6.1,6.1,0,0,1,4,0,3,3,0,0,1,1.21,1,3.85,3.85,0,0,1,.6,1.48,12,12,0,0,1,0,3.79,3.85,3.85,0,0,1-.6,1.48,3,3,0,0,1-1.21,1,5,5,0,0,1-2,.34H57.34a1.45,1.45,0,0,0-1.64,1.64v4.11H54.1v-4.11c0-2.16,1.08-3.25,3.24-3.25h.59Zm1.56,3.06H62a2.76,2.76,0,0,0,1.24-.26,1.46,1.46,0,0,0,.67-.65,2.88,2.88,0,0,0,.27-1,11.59,11.59,0,0,0,.06-1.22,11.84,11.84,0,0,0-.06-1.24,2.62,2.62,0,0,0-.29-1,1.65,1.65,0,0,0-.72-.66,3.22,3.22,0,0,0-1.32-.23,3.08,3.08,0,0,0-1.31.23,1.57,1.57,0,0,0-.71.66,2.45,2.45,0,0,0-.3,1c0,.38,0,.79,0,1.24Z" transform="translate(-54.1 -29.54)"/><path class="e48af064-f5cb-46c6-9c71-365aea97a74c" d="M77.85,108.13a3.43,3.43,0,0,1-2.42-.77,2.21,2.21,0,0,1-1.91.77H67v-1.61h2.69V91.21h1.6v15.31h2.19a.65.65,0,0,0,.74-.74V91.21h1.6v13.67a1.45,1.45,0,0,0,1.65,1.64h.72v1.61Z" transform="translate(-54.1 -29.54)"/><path class="e48af064-f5cb-46c6-9c71-365aea97a74c" d="M97,101.47c-.59-.21-1.16-.39-1.72-.54a6.74,6.74,0,0,0-1.73-.23,1.92,1.92,0,0,0-1,.24,2.56,2.56,0,0,0-.73.62,2.91,2.91,0,0,0-.47.89,3.12,3.12,0,0,0-.17,1v.23a6.43,6.43,0,0,0,.12,1,9.18,9.18,0,0,0,.6,1.82h5.61v1.61H77.89v-1.61H90.22a8.73,8.73,0,0,1-.5-1.7,6.8,6.8,0,0,1-.11-1.09v-.23a6,6,0,0,1,.23-1.65,4,4,0,0,1,.73-1.39,3.49,3.49,0,0,1,1.21-1,3.9,3.9,0,0,1,1.73-.37,6.91,6.91,0,0,1,1.71.21c.56.13,1.14.3,1.74.49Z" transform="translate(-54.1 -29.54)"/><path class="e48af064-f5cb-46c6-9c71-365aea97a74c" d="M109.79,108.13a3.4,3.4,0,0,1-2.41-.77,2.23,2.23,0,0,1-1.92.77H99v-1.61h2.68V91.21h1.6v15.31h2.19a.66.66,0,0,0,.75-.74V91.21h1.6v13.67a1.45,1.45,0,0,0,1.65,1.64h.72v1.61Zm-8.68,3.33a2.61,2.61,0,0,1,.47-1.74,2,2,0,0,1,1.56-.53,2,2,0,0,1,.67.14,1.64,1.64,0,0,1,.57.33l-.27.79a2.29,2.29,0,0,0-.56-.24,1.79,1.79,0,0,0-.41,0,.9.9,0,0,0-.82.33,1.57,1.57,0,0,0-.22.88v.34h2.28v1h-3.9v-.86l.63-.11Z" transform="translate(-54.1 -29.54)"/><path class="e48af064-f5cb-46c6-9c71-365aea97a74c" d="M109.84,108.13v-1.61h1.58a1.44,1.44,0,0,0,1.64-1.64V91.21h1.61v13.67c0,2.16-1.09,3.25-3.25,3.25Z" transform="translate(-54.1 -29.54)"/><path class="e48af064-f5cb-46c6-9c71-365aea97a74c" d="M129.46,108.13a4.27,4.27,0,0,1-3.2-1,3.78,3.78,0,0,1-1-2.73v-1.54a3.78,3.78,0,0,1,1-2.73,4.32,4.32,0,0,1,3.22-1,5.7,5.7,0,0,1,1.49.17,5.58,5.58,0,0,1,1.1.39l.16-.29h1.15v5a2,2,0,0,0,2.32,2.21h.34v1.61h-.34a2.85,2.85,0,0,1-2.84-1.43A3.94,3.94,0,0,1,129.46,108.13ZM128,96.8a1.21,1.21,0,0,1-.88-.36,1.19,1.19,0,0,1-.36-.88A1.23,1.23,0,0,1,128,94.32a1.19,1.19,0,0,1,.88.36,1.21,1.21,0,0,1,.36.88A1.23,1.23,0,0,1,128,96.8Zm1.47,9.72a2,2,0,0,0,2.32-2.32v-3l-.39-.18a2.41,2.41,0,0,0-.43-.15,3.38,3.38,0,0,0-.59-.12,6.74,6.74,0,0,0-.84,0,2.88,2.88,0,0,0-1.84.52,2.14,2.14,0,0,0-.73,1.69v1.44a2.2,2.2,0,0,0,.69,1.69A2.79,2.79,0,0,0,129.42,106.52Zm3.27-11a1.19,1.19,0,0,1-.36.88,1.21,1.21,0,0,1-.88.36,1.23,1.23,0,0,1-1.24-1.24,1.21,1.21,0,0,1,.36-.88,1.19,1.19,0,0,1,.88-.36,1.23,1.23,0,0,1,1.24,1.24Z" transform="translate(-54.1 -29.54)"/><path class="e48af064-f5cb-46c6-9c71-365aea97a74c" d="M135.74,106.52h2.73v-3a12,12,0,0,1,.16-2,4,4,0,0,1,.6-1.53,2.86,2.86,0,0,1,1.21-1,4.67,4.67,0,0,1,2-.36,4.59,4.59,0,0,1,2,.36,2.89,2.89,0,0,1,1.2,1,4,4,0,0,1,.6,1.53,12,12,0,0,1,.16,2,11.27,11.27,0,0,1-.16,1.94,3.59,3.59,0,0,1-.6,1.45,2.82,2.82,0,0,1-1.2.93,5,5,0,0,1-2,.33h-6.68Zm4.92-10.24A1.23,1.23,0,0,1,139.42,95a1.21,1.21,0,0,1,.36-.88,1.26,1.26,0,0,1,1.76,0,1.21,1.21,0,0,1,.36.88,1.23,1.23,0,0,1-1.24,1.24Zm4.13,7.2c0-.48,0-.93-.06-1.33a2.8,2.8,0,0,0-.29-1.06,1.73,1.73,0,0,0-.71-.71,2.67,2.67,0,0,0-1.31-.26,2.73,2.73,0,0,0-1.33.26,1.68,1.68,0,0,0-.71.71,2.63,2.63,0,0,0-.29,1.06c0,.4-.06.85-.06,1.33v3h2.39a3.34,3.34,0,0,0,1.31-.2,1.45,1.45,0,0,0,.71-.6,2.26,2.26,0,0,0,.29-1A12.09,12.09,0,0,0,144.79,103.48ZM145.4,95a1.19,1.19,0,0,1-.36.88,1.21,1.21,0,0,1-.88.36A1.23,1.23,0,0,1,142.92,95a1.21,1.21,0,0,1,.36-.88,1.19,1.19,0,0,1,.88-.36A1.23,1.23,0,0,1,145.4,95Z" transform="translate(-54.1 -29.54)"/><path class="e48af064-f5cb-46c6-9c71-365aea97a74c" d="M147.11,112.39a4,4,0,0,0,1.32-.31,1.88,1.88,0,0,0,.79-.65,2.71,2.71,0,0,0,.38-1,7.74,7.74,0,0,0,.1-1.33v-10h1.58v10a8,8,0,0,1-.22,2,3.62,3.62,0,0,1-.71,1.49,3.34,3.34,0,0,1-1.29,1,6,6,0,0,1-1.95.42Z" transform="translate(-54.1 -29.54)"/><path class="e48af064-f5cb-46c6-9c71-365aea97a74c" d="M157.58,108.13c-2.16,0-3.25-1.09-3.25-3.25V91.21h1.6v13.67a1.45,1.45,0,0,0,1.65,1.64h11.17v1.61Z" transform="translate(-54.1 -29.54)"/><path class="e48af064-f5cb-46c6-9c71-365aea97a74c" d="M174.83,108.13a3.18,3.18,0,0,1-2.72-1.18,3.18,3.18,0,0,1-2.71,1.18h-1.06v-1.61h1.06c1.28,0,1.92-.77,1.92-2.32V99.06h1.6v5.34c0,1.42.68,2.12,1.91,2.12s1.92-.77,1.92-2.32V99.06h1.6v5.14c0,1.55.64,2.32,1.92,2.32s1.92-.77,1.92-2.32V99.06h1.6v5.14c0,1.55.64,2.32,1.92,2.32h1.06v1.61h-1.06A3.18,3.18,0,0,1,183,107a3.72,3.72,0,0,1-5.44,0A3.17,3.17,0,0,1,174.83,108.13Zm.93-11.31a1.23,1.23,0,0,1-1.24-1.24,1.21,1.21,0,0,1,.36-.88,1.26,1.26,0,0,1,1.76,0,1.21,1.21,0,0,1,.36.88,1.23,1.23,0,0,1-1.24,1.24Zm1.74-3a1.24,1.24,0,1,1,0-2.48,1.21,1.21,0,0,1,.88.36,1.26,1.26,0,0,1,0,1.76A1.21,1.21,0,0,1,177.5,93.8Zm3,1.78a1.23,1.23,0,0,1-1.24,1.24,1.21,1.21,0,0,1-.88-.36,1.19,1.19,0,0,1-.36-.88,1.23,1.23,0,0,1,1.24-1.24,1.19,1.19,0,0,1,.88.36A1.21,1.21,0,0,1,180.47,95.58Z" transform="translate(-54.1 -29.54)"/><path class="e48af064-f5cb-46c6-9c71-365aea97a74c" d="M186.31,108.13v-1.61h1.58a1.45,1.45,0,0,0,1.64-1.64V91.21h1.6v13.67c0,2.16-1.08,3.25-3.24,3.25Z" transform="translate(-54.1 -29.54)"/><path class="e48af064-f5cb-46c6-9c71-365aea97a74c" d="M194,108.13V91.21h1.6v16.92Z" transform="translate(-54.1 -29.54)"/><path class="e48af064-f5cb-46c6-9c71-365aea97a74c" d="M210.7,108.13a4.27,4.27,0,0,1-3.2-1,3.78,3.78,0,0,1-1-2.73v-1.54a3.78,3.78,0,0,1,1-2.73,4.31,4.31,0,0,1,3.21-1,5.6,5.6,0,0,1,1.49.17,5.47,5.47,0,0,1,1.11.39l.16-.29h1.15v5a2,2,0,0,0,2.32,2.21h.34v1.61H217a2.84,2.84,0,0,1-2.84-1.43A3.94,3.94,0,0,1,210.7,108.13ZM209.19,96.8A1.23,1.23,0,0,1,208,95.56a1.21,1.21,0,0,1,.36-.88,1.26,1.26,0,0,1,1.76,0,1.21,1.21,0,0,1,.36.88,1.23,1.23,0,0,1-1.24,1.24Zm1.47,9.72A2.05,2.05,0,0,0,213,104.2v-3l-.4-.18a2.29,2.29,0,0,0-.42-.15,3.58,3.58,0,0,0-.59-.12,6.92,6.92,0,0,0-.85,0,2.87,2.87,0,0,0-1.83.52,2.17,2.17,0,0,0-.74,1.69v1.44a2.24,2.24,0,0,0,.7,1.69A2.75,2.75,0,0,0,210.66,106.52Zm3.27-11a1.19,1.19,0,0,1-.36.88,1.22,1.22,0,0,1-.88.36,1.23,1.23,0,0,1-1.24-1.24,1.21,1.21,0,0,1,.36-.88,1.19,1.19,0,0,1,.88-.36,1.22,1.22,0,0,1,.88.36A1.21,1.21,0,0,1,213.93,95.56Z" transform="translate(-54.1 -29.54)"/><path class="e48af064-f5cb-46c6-9c71-365aea97a74c" d="M217,108.13v-1.61h11a2,2,0,0,0,2.32-2.32V99.06h1.6v5.25a2,2,0,0,0,2.33,2.21h1.51v1.61H234.2a3.9,3.9,0,0,1-3.14-1.18,3.81,3.81,0,0,1-3.11,1.18Zm12.84-12.57a1.23,1.23,0,0,1,1.24-1.24,1.19,1.19,0,0,1,.88.36,1.21,1.21,0,0,1,.36.88,1.23,1.23,0,0,1-1.24,1.24,1.21,1.21,0,0,1-.88-.36A1.19,1.19,0,0,1,229.82,95.56Z" transform="translate(-54.1 -29.54)"/><path class="e48af064-f5cb-46c6-9c71-365aea97a74c" d="M235.29,108.13v-1.61h2.8a2.06,2.06,0,0,0,2.33-2.32V99.06H242v5.14q0,3.93-3.93,3.93Zm2,5.27a1.19,1.19,0,0,1-.87-.36,1.16,1.16,0,0,1-.37-.88,1.25,1.25,0,0,1,1.24-1.24,1.19,1.19,0,0,1,.88.36,1.18,1.18,0,0,1,.37.88,1.16,1.16,0,0,1-.37.88A1.19,1.19,0,0,1,237.32,113.4Zm4.74-1.24a1.23,1.23,0,0,1-1.24,1.24,1.21,1.21,0,0,1-.88-.36,1.19,1.19,0,0,1-.36-.88,1.23,1.23,0,0,1,1.24-1.24,1.19,1.19,0,0,1,.88.36A1.21,1.21,0,0,1,242.06,112.16Z" transform="translate(-54.1 -29.54)"/><path class="e48af064-f5cb-46c6-9c71-365aea97a74c" d="M252.92,108.13h-9.29v-1.61h6v-4.19c0-1.16-.74-1.74-2.21-1.74a4.84,4.84,0,0,0-1.7.38l-.54-1.33a5.62,5.62,0,0,1,1.1-.41,3.85,3.85,0,0,1,1.07-.17,6.08,6.08,0,0,1,2.07.29,2.58,2.58,0,0,1,1.15.77,2.26,2.26,0,0,1,.5,1.06,5.67,5.67,0,0,1,.11,1.15v4.19h1.76Z" transform="translate(-54.1 -29.54)"/><path class="e48af064-f5cb-46c6-9c71-365aea97a74c" d="M272.6,103.66a10.84,10.84,0,0,1-.16,2,3.84,3.84,0,0,1-.59,1.54,3,3,0,0,1-1.2,1,5.64,5.64,0,0,1-4.07,0,3,3,0,0,1-1.22-1.16,2.73,2.73,0,0,1-1.18.86,4.92,4.92,0,0,1-1.84.3h-9.81v-1.61h9.81a3.05,3.05,0,0,0,1.32-.24,1.68,1.68,0,0,0,.72-.7,2.85,2.85,0,0,0,.29-1.06c0-.41.06-.85.06-1.34a8.86,8.86,0,0,1,.21-1.78,3.76,3.76,0,0,1,.65-1.4,2.92,2.92,0,0,1,1.19-.9,4.93,4.93,0,0,1,1.9-.31,4.59,4.59,0,0,1,2,.36,3,3,0,0,1,1.2,1,3.86,3.86,0,0,1,.59,1.53A11,11,0,0,1,272.6,103.66Zm-1.56,0c0-.48,0-.93-.05-1.33a3,3,0,0,0-.29-1.06,1.73,1.73,0,0,0-.71-.71,2.7,2.7,0,0,0-1.31-.26,2.94,2.94,0,0,0-1.26.22,2,2,0,0,0-.72.61,2.39,2.39,0,0,0-.34.94,8.81,8.81,0,0,0-.07,1.18v.43c0,.48,0,.93,0,1.33a2.88,2.88,0,0,0,.29,1,1.72,1.72,0,0,0,.72.69,3.61,3.61,0,0,0,2.64,0,1.71,1.71,0,0,0,.71-.7A3,3,0,0,0,271,105C271,104.58,271,104.14,271,103.66Z" transform="translate(-54.1 -29.54)"/><path class="e48af064-f5cb-46c6-9c71-365aea97a74c" d="M63.62,120.74v1.64a22.22,22.22,0,0,0-4.09-.43c-2.92,0-3.49.9-3.49,2.68,0,1.48.39,1.76,3.41,2.84s4.75,1.7,4.75,4.62c0,3.46-2.19,4.55-5.55,4.55a19.69,19.69,0,0,1-4.5-.58v-1.64a19.73,19.73,0,0,0,4.44.57c2.57,0,3.72-.7,3.72-2.84,0-1.67-.7-2.09-3.48-3.06-3.33-1.16-4.69-1.5-4.69-4.36s1.25-4.43,5.35-4.43A21.33,21.33,0,0,1,63.62,120.74Z" transform="translate(-54.1 -29.54)"/><path class="e48af064-f5cb-46c6-9c71-365aea97a74c" d="M78.92,128.26v8.11H77.24V128.3c0-2-.76-2.65-2.13-2.65a11.58,11.58,0,0,0-4.58,1.28v9.43H68.85V119.45h1.68v5.94a11.64,11.64,0,0,1,4.67-1.24C77.38,124.15,78.92,125.32,78.92,128.26Z" transform="translate(-54.1 -29.54)"/><path class="e48af064-f5cb-46c6-9c71-365aea97a74c" d="M93.24,128.26v8.1h-1.5l-.08-1a8.45,8.45,0,0,1-4.24,1.3c-2,0-3.8-.91-3.8-3.82s1.73-3.77,4.5-3.77h3.46v-.78c0-2.06-1.15-2.69-3.24-2.69a20.56,20.56,0,0,0-3.78.45v-1.47a22,22,0,0,1,3.8-.42C90.93,124.14,93.24,125,93.24,128.26Zm-5.72,6.94a8.07,8.07,0,0,0,4.06-1.29v-3.47H88.15c-2.07,0-2.84.36-2.84,2.36C85.31,134.65,86,135.2,87.52,135.2Z" transform="translate(-54.1 -29.54)"/><path class="e48af064-f5cb-46c6-9c71-365aea97a74c" d="M104.83,125.58c-1.18,0-2.41.41-4.69,1.62v9.16H98.46v-12H100l.11,1.26a10.25,10.25,0,0,1,4.76-1.53Z" transform="translate(-54.1 -29.54)"/><path class="e48af064-f5cb-46c6-9c71-365aea97a74c" d="M111,137.75c0,2.42-1.52,3.23-3.52,3.23h-.39v-1.5h.33c1.37,0,1.9-.52,1.9-1.78V124.41H111Zm.11-15.32h-1.9v-1.89h1.9Z" transform="translate(-54.1 -29.54)"/><path class="e48af064-f5cb-46c6-9c71-365aea97a74c" d="M125.44,128.26v8.1h-1.5l-.08-1a8.48,8.48,0,0,1-4.24,1.3c-2,0-3.8-.91-3.8-3.82s1.73-3.77,4.5-3.77h3.45v-.78c0-2.06-1.14-2.69-3.23-2.69a20.56,20.56,0,0,0-3.78.45v-1.47a22,22,0,0,1,3.8-.42C123.13,124.14,125.44,125,125.44,128.26Zm-5.72,6.94a8,8,0,0,0,4-1.29v-3.47h-3.42c-2.07,0-2.85.36-2.85,2.36C117.5,134.65,118.21,135.2,119.72,135.2Z" transform="translate(-54.1 -29.54)"/><path class="e48af064-f5cb-46c6-9c71-365aea97a74c" d="M140.79,128.26v8.11h-1.68V128.3c0-2-.77-2.65-2.14-2.65a11.58,11.58,0,0,0-4.57,1.28v9.43h-1.68V119.45h1.68v5.94a11.56,11.56,0,0,1,4.67-1.24C139.25,124.15,140.79,125.32,140.79,128.26Z" transform="translate(-54.1 -29.54)"/><path class="e48af064-f5cb-46c6-9c71-365aea97a74c" d="M165.72,136.36,165,123.52,161.27,134h-1.83l-3.69-10.48L155,136.36h-1.88l1-15.79h2.48l3.76,10.8,3.76-10.8h2.48l1,15.79Z" transform="translate(-54.1 -29.54)"/><path class="e48af064-f5cb-46c6-9c71-365aea97a74c" d="M182.55,130.19c0,.12,0,.38-.05.73H174c.07,3.12,1,4.21,3.76,4.21a9.44,9.44,0,0,0,4.26-.92v1.46a9.25,9.25,0,0,1-4.35,1c-4.15,0-5.42-2.22-5.42-6.21s1.27-6.29,5.23-6.29C182.36,124.14,182.7,127.62,182.55,130.19Zm-8.49-.62h6.77c.06-1.88-.1-3.93-3.35-3.93C175.09,125.64,174.2,126.76,174.06,129.57Z" transform="translate(-54.1 -29.54)"/><path class="e48af064-f5cb-46c6-9c71-365aea97a74c" d="M195.87,136.36l-.09-1a7.73,7.73,0,0,1-4.14,1.31c-3.65,0-4.7-2.39-4.7-6.25s1.05-6.25,4.7-6.25a7.63,7.63,0,0,1,4.05,1.25v-6h1.68v16.92Zm-4.07-1.23c1.08,0,2-.26,3.89-1.37V127c-1.94-1.1-2.81-1.37-3.89-1.37-2.41,0-3.11,1.36-3.11,4.75S189.39,135.13,191.8,135.13Z" transform="translate(-54.1 -29.54)"/><path class="e48af064-f5cb-46c6-9c71-365aea97a74c" d="M204.61,122.43h-1.9v-1.89h1.9Zm-.11,13.93h-1.68v-12h1.68Z" transform="translate(-54.1 -29.54)"/><path class="e48af064-f5cb-46c6-9c71-365aea97a74c" d="M218.9,128.26v8.1h-1.51l-.08-1a8.44,8.44,0,0,1-4.23,1.3c-2,0-3.81-.91-3.81-3.82s1.73-3.77,4.51-3.77h3.45v-.78c0-2.06-1.15-2.69-3.24-2.69a20.66,20.66,0,0,0-3.78.45v-1.47a22,22,0,0,1,3.8-.42C216.58,124.14,218.9,125,218.9,128.26Zm-5.73,6.94a8.07,8.07,0,0,0,4.06-1.29v-3.47H213.8c-2.07,0-2.84.36-2.84,2.36C211,134.65,211.66,135.2,213.17,135.2Z" transform="translate(-54.1 -29.54)"/><path class="e48af064-f5cb-46c6-9c71-365aea97a74c" d="M237.27,120.3a15.73,15.73,0,0,1,3.68.47v1.66a14.92,14.92,0,0,0-3.56-.48c-3.65,0-4.48,1.78-4.48,6.52s.83,6.52,4.43,6.52a15.87,15.87,0,0,0,3.61-.48v1.66a16.28,16.28,0,0,1-3.68.47c-5.1,0-6.25-3-6.25-8.17s1.2-8.17,6.25-8.17Z" transform="translate(-54.1 -29.54)"/><path class="e48af064-f5cb-46c6-9c71-365aea97a74c" d="M247.61,122.43h-1.9v-1.89h1.9Zm-.11,13.93h-1.68v-12h1.68Z" transform="translate(-54.1 -29.54)"/><path class="e48af064-f5cb-46c6-9c71-365aea97a74c" d="M258.11,135.1v1.45a7.59,7.59,0,0,1-1.14.09c-1.81,0-3.21-.73-3.21-2.95v-7.93h-1.95v-1.35h1.95v-3h1.68v3h2.67v1.36h-2.67v7.88a1.33,1.33,0,0,0,1.52,1.52C257.34,135.16,257.71,135.13,258.11,135.1Z" transform="translate(-54.1 -29.54)"/><path class="e48af064-f5cb-46c6-9c71-365aea97a74c" d="M273.15,124.41,268,138.6a3.24,3.24,0,0,1-3.14,2.21h-1v-1.49h1a1.62,1.62,0,0,0,1.65-1.21l.88-2.46-4.95-11.24h1.84l3.93,9,3.22-9Z" transform="translate(-54.1 -29.54)"/><path class="a25ed1b3-98eb-4402-a42f-d0df1a39494a" d="M338.37,127a10.93,10.93,0,0,1-5.78-1.74l-.87-.61,1.22-1.73.86.61a9,9,0,0,0,4.57,1.36c1.89,0,3.92-.62,3.92-2,0-.83-.49-1.77-4.09-2.41l-.05,0c-2.81-.5-6-1.07-6-4,0-2.25,2.54-3.88,6-3.88a12.36,12.36,0,0,1,5.1,1.19l.94.48-1,1.89-.94-.49a10.36,10.36,0,0,0-4.13-1c-2.12,0-3.91.81-3.91,1.77s1.68,1.45,4.24,1.91h.06c2.71.49,5.82,1.44,5.82,4.5C344.4,125.3,342,127,338.37,127Z" transform="translate(-54.1 -29.54)"/><path class="b705b509-921e-4712-9909-0e6e4d556ffb" d="M388.51,126.75a7.84,7.84,0,0,1-3.62-1.09l-.9-.56,1.12-1.79.9.56a5.62,5.62,0,0,0,2.5.77c.74,0,1.91-.23,1.91-.84,0-.19,0-.57-2.1-.94-1.58-.27-4-.68-4-2.85,0-1.66,1.66-2.83,4-2.83a8.79,8.79,0,0,1,3,.62l1,.42-.84,1.94-1-.41a6.36,6.36,0,0,0-2.2-.45c-1.13,0-1.92.37-1.92.71s1.38.63,2.21.77c1.35.23,3.86.66,3.86,3C392.53,125.57,390.91,126.75,388.51,126.75Z" transform="translate(-54.1 -29.54)"/><path class="a0710499-30e8-427e-a9cc-e12f79efcb50" d="M367.7,126.76v-9.57h2.11v1.48a3.8,3.8,0,0,1,3-1.49,3.27,3.27,0,0,1,2.92,1.59,4.78,4.78,0,0,1,3.44-1.59,3.28,3.28,0,0,1,3.41,3.51v6.06h-2.12v-6.06c0-.63-.22-1.4-1.29-1.4-.49,0-2.94.23-3,4.72v2.74h-2.11v-6.06c0-.63-.22-1.4-1.29-1.4-.49,0-3,.23-3,4.75v2.72Z" transform="translate(-54.1 -29.54)"/><path class="bdc74cf7-6370-4e52-adb8-e342a187e9d2" d="M352.39,126.75v-6.06c0-.63-.22-1.4-1.29-1.4-.49,0-3,.23-3,4.75v2.7H346V112.22h2.12v6.42a3.8,3.8,0,0,1,3-1.46,3.28,3.28,0,0,1,3.41,3.51v6.06Z" transform="translate(-54.1 -29.54)"/><path class="ece4b292-88ad-40da-9c2e-4f9b701f3492" d="M363.56,126.76v-1.49a3.79,3.79,0,0,1-2.74,1.48h-1.09a3.87,3.87,0,0,1-3.63-3.89v-1.77a3.92,3.92,0,0,1,3.91-3.91h3.38a2.15,2.15,0,0,1,2.28,2.22v7.36ZM360,119.29a1.77,1.77,0,0,0-1.79,1.8v1.77a1.78,1.78,0,0,0,1.76,1.77h.63c.49,0,2.95-.23,2.95-4.74v-.5a.24.24,0,0,0,0-.09h0a.48.48,0,0,0-.16,0Z" transform="translate(-54.1 -29.54)"/><path class="b79516f7-0361-458d-a475-10d2547e63ae" d="M327.6,115.05a7.13,7.13,0,0,1-5.7-2.92c-2-2.6-2.44-6.4-1.36-10.69l.06-.24h2.2l-.11.41c-1.05,3.81-.73,7.09.9,9.24a5,5,0,0,0,4,2.09,2.57,2.57,0,0,0,2.76-2.88V101.2h2.12v2.72c0,3.5,1.59,4.74,2.95,4.74,1.07,0,1.29-.76,1.29-1.4V101.2h2.12v2.74c0,4.49,2.46,4.72,3,4.72,1.07,0,1.29-.76,1.29-1.4V101.2h2.12V106c0,2.65,2.72,2.68,2.83,2.68h2.59c1.06,0,1.29-.76,1.29-1.4v-3.84a2.16,2.16,0,0,1,2.28-2.23h3.38a3.91,3.91,0,0,1,3.9,3.91V106c0,2.65,2.72,2.68,2.84,2.68h2.47c.81,0,1.11-1,1.11-1.6V101.2H370v2.71c0,3.5,1.59,4.75,3,4.75,1.06,0,1.29-.76,1.29-1.4V101.2h2.11v2.74c0,4.49,2.47,4.72,3,4.72,1.07,0,1.29-.76,1.29-1.4V101.2h2.11v6.06a3.27,3.27,0,0,1-3.4,3.51,4.17,4.17,0,0,1-3.44-1.86,2.94,2.94,0,0,1-2.92,1.86,4.17,4.17,0,0,1-3.49-1.91,2.75,2.75,0,0,1-2.69,1.91h-2.47a4.51,4.51,0,0,1-3.69-1.72,3.28,3.28,0,0,1-2.78,1.72h-1.08a4,4,0,0,1-3.23-1.82,2.93,2.93,0,0,1-2.91,1.82H348a4.38,4.38,0,0,1-3.51-1.57,2.74,2.74,0,0,1-2.73,1.57,4.15,4.15,0,0,1-3.44-1.86,2.92,2.92,0,0,1-2.92,1.86,3.73,3.73,0,0,1-2.95-1.39v.68A4.63,4.63,0,0,1,327.6,115.05ZM354,103.33a.24.24,0,0,0,0,.09v.49c0,4.52,2.46,4.75,3,4.75h.61a1.8,1.8,0,0,0,1.77-1.77V105.1a1.78,1.78,0,0,0-1.79-1.79h-3.38a.35.35,0,0,0-.16,0Z" transform="translate(-54.1 -29.54)"/><path class="e8a1a060-47bf-4349-9608-27d2ee62fcba" d="M372.56,100.33A1.38,1.38,0,1,1,373.94,99,1.38,1.38,0,0,1,372.56,100.33Z" transform="translate(-54.1 -29.54)"/><path class="ba339d75-0dfd-4152-bdb1-92c76a8230ec" d="M378,100.33A1.38,1.38,0,1,1,379.42,99,1.38,1.38,0,0,1,378,100.33Z" transform="translate(-54.1 -29.54)"/><path class="addf2a51-a382-4833-b1b1-dcd8d1d77179" d="M375.3,98a1.38,1.38,0,1,1,1.37-1.37A1.37,1.37,0,0,1,375.3,98Z" transform="translate(-54.1 -29.54)"/><path class="e92a1ee1-a9ee-41d2-ad08-809dc3bc1b24" d="M357.13,167.1V155.83l-1.2,0-1.19,0v12l1.19-.39Z" transform="translate(-54.1 -29.54)"/><path class="edf75e17-34b2-4a3f-b885-999207106ba0" d="M354.74,53.92V71.43l1.19,0,1.2,0v-17c-.4-.08-.8-.16-1.2-.26S355.14,54,354.74,53.92Z" transform="translate(-54.1 -29.54)"/><path class="a12af873-e5da-439e-8ec5-0fdbff30b1fa" d="M361,155.54c-.79.1-1.58.17-2.38.22l1,10.72c.79-.16,1.57-.3,2.36-.42Z" transform="translate(-54.1 -29.54)"/><path class="b22d4b9d-e770-4901-9107-ef9e89a336e3" d="M350.85,71.72c.79-.1,1.58-.17,2.38-.22L351.52,53c-.81-.25-1.64-.52-2.48-.81Z" transform="translate(-54.1 -29.54)"/><path class="a068b956-517c-470d-b501-fe227147df39" d="M347,72.36c.77-.17,1.55-.31,2.34-.44l-3.93-21c-.86-.32-1.73-.66-2.62-1Z" transform="translate(-54.1 -29.54)"/><path class="a9622754-281f-47b1-898d-d317cdc997fa" d="M364.86,154.9c-.77.16-1.55.31-2.34.43l1.94,10.43c.8-.07,1.6-.12,2.41-.15Z" transform="translate(-54.1 -29.54)"/><path class="b75b0a59-a6bd-4b2b-8b0d-0057cc8e7ac5" d="M343.23,73.36c.76-.24,1.53-.46,2.3-.66l-7-24.58c-.94-.39-1.88-.8-2.83-1.21Z" transform="translate(-54.1 -29.54)"/><path class="b576ba0b-85c1-4751-a950-ed298e7ff2e9" d="M368.63,153.9c-.75.24-1.52.46-2.29.65l3.14,11c.83,0,1.67,0,2.51.11Z" transform="translate(-54.1 -29.54)"/><path class="ee348482-3ffa-4aa0-9c32-0c88526040b0" d="M339.57,74.7c.73-.31,1.48-.6,2.23-.86L330.47,44.59l-3.11-1.41Z" transform="translate(-54.1 -29.54)"/><path class="f0c090d3-a7f3-4162-ab58-b7b9fe09c266" d="M372.3,152.56c-.74.31-1.48.59-2.23.86L374.93,166c.91.11,1.81.23,2.71.38Z" transform="translate(-54.1 -29.54)"/><path class="ae1d7f52-4d3c-44ca-96a0-1a501e986c78" d="M375.82,150.88c-.7.37-1.42.73-2.14,1.06l7.5,15.08c1,.21,2,.45,3,.7Z" transform="translate(-54.1 -29.54)"/><path class="ac631777-25ec-412d-b747-45d12eb752b6" d="M336.05,76.38c.7-.38,1.42-.73,2.14-1.07L320.68,40.14c-1.16-.52-2.3-1-3.44-1.54Z" transform="translate(-54.1 -29.54)"/><path class="b0c10aa5-28a6-4bf3-83cc-ad0460563d2f" d="M379.17,148.88c-.67.44-1.34.86-2,1.26L388.83,169q1.77.54,3.51,1.14Z" transform="translate(-54.1 -29.54)"/><path class="a577c8d2-e496-4c13-95fc-44d9fac31fed" d="M332.7,78.38c.67-.44,1.34-.86,2-1.26L308.56,34.85c-1.27-.53-2.51-1-3.73-1.49Z" transform="translate(-54.1 -29.54)"/><path class="b3c78dda-9c7b-4a7a-a154-0bfadf9eb739" d="M329.55,80.67c.62-.5,1.25-1,1.9-1.44L294.33,30.07a27.38,27.38,0,0,0-3.39-.53Z" transform="translate(-54.1 -29.54)"/><path class="b242fbf8-62b2-4700-a8af-72214c08d915" d="M382.32,146.59c-.62.49-1.26,1-1.9,1.44L399,172.57c1.45.56,2.88,1.12,4.26,1.68Z" transform="translate(-54.1 -29.54)"/><path class="a8593266-49b5-4b34-826e-edde7d2212ab" d="M326.62,83.25c.58-.56,1.16-1.09,1.77-1.61l-45-49.35a6.81,6.81,0,0,0-.76,2.71Z" transform="translate(-54.1 -29.54)"/><path class="edc626d6-6822-4394-8c0d-6bbbe604824b" d="M385.25,144c-.58.55-1.16,1.09-1.77,1.61l29.69,32.57c1.65.6,3.18,1.11,4.58,1.47Z" transform="translate(-54.1 -29.54)"/><path class="abc7f422-b5b4-4ff3-903a-58818111465a" d="M387.93,141.18c-.52.6-1.06,1.19-1.61,1.76l39.35,35.88.09-.12a7.36,7.36,0,0,0,1-2.11Z" transform="translate(-54.1 -29.54)"/><path class="ac1c0bd2-1cb2-4737-a519-993d4c23cccc" d="M323.94,86.08c.52-.6,1.06-1.19,1.61-1.76L286.33,48.56c.87,1.81,1.86,3.79,2.93,5.91Z" transform="translate(-54.1 -29.54)"/><path class="a87b053b-27f3-4c07-8b02-6562c7831002" d="M321.53,89.15c.47-.65,1-1.28,1.45-1.91L295,66.13q1,2.22,2.06,4.55Z" transform="translate(-54.1 -29.54)"/><path class="a2ab786a-129b-43d6-8825-fb9c0c432cf0" d="M390.33,138.11c-.46.65-.94,1.28-1.44,1.9l38,28.71c-.17-1.11-.4-2.28-.68-3.51Z" transform="translate(-54.1 -29.54)"/><path class="a7239bfd-387a-4a98-84ec-fd956c198866" d="M319.42,92.42c.4-.68.82-1.36,1.26-2L299.87,77.51c.46,1.19.89,2.4,1.31,3.62Z" transform="translate(-54.1 -29.54)"/><path class="e57bc741-03f4-438a-a475-a4ef9cf1731a" d="M392.45,134.83c-.4.69-.82,1.37-1.26,2L424,157.15c-.36-1.15-.75-2.32-1.15-3.53Z" transform="translate(-54.1 -29.54)"/><path class="f783be88-f44f-40fd-864d-c433143d63c5" d="M317.62,95.88c.33-.72.69-1.43,1.06-2.13l-16-8c.3,1,.59,2.06.86,3.1Z" transform="translate(-54.1 -29.54)"/><path class="b94f215c-b565-4e8e-98aa-2fea15b15f43" d="M394.25,131.37c-.34.73-.69,1.44-1.07,2.14l27.36,13.62c-.37-1.06-.76-2.14-1.15-3.24Z" transform="translate(-54.1 -29.54)"/><path class="a82ccd7b-884c-4930-ba4b-56644b91849d" d="M316.14,99.49c.27-.75.56-1.49.86-2.22l-12.63-4.9c.21.92.39,1.85.56,2.78Z" transform="translate(-54.1 -29.54)"/><path class="fe59ced5-ecc3-4fbf-8428-4436aac5ed55" d="M395.72,127.76c-.26.76-.55,1.5-.86,2.23l22.72,8.8c-.35-1-.69-2-1-3Z" transform="translate(-54.1 -29.54)"/><path class="a37b45bb-860f-4253-a54d-867cdd61b322" d="M315,103.23c.2-.78.41-1.54.65-2.3L305.4,98c.13.86.24,1.71.33,2.58Z" transform="translate(-54.1 -29.54)"/><path class="ba20bc62-37bb-4bcd-8ba0-aedaa8b87c3e" d="M396.86,124c-.2.78-.41,1.54-.65,2.3l18.9,5.38c-.31-.91-.62-1.83-.92-2.75Z" transform="translate(-54.1 -29.54)"/><path class="fc8ab8cc-7fe0-4496-8c93-6e7115381c30" d="M314.23,107.05c.12-.79.27-1.58.44-2.35L306,103.07c.06.82.11,1.64.14,2.46Z" transform="translate(-54.1 -29.54)"/><path class="f5548f4e-9705-4325-95fb-b39f4f51d29c" d="M397.64,120.21c-.12.79-.27,1.57-.44,2.35l15.85,3c-.27-.85-.55-1.72-.82-2.58Z" transform="translate(-54.1 -29.54)"/><path class="bff488b3-fc08-47e2-8083-3fb80e8dd230" d="M398.06,116.33c-.05.8-.12,1.59-.21,2.38L411.31,120c-.25-.82-.5-1.64-.74-2.47Z" transform="translate(-54.1 -29.54)"/><path class="bfd25534-cb6d-41fd-b7de-1c7534f57b67" d="M306.1,110.21l7.7.71c.06-.8.13-1.59.22-2.37l-7.87-.73C306.15,108.61,306.13,109.41,306.1,110.21Z" transform="translate(-54.1 -29.54)"/><path class="b7b2c636-2423-4e08-b6f3-62c47b4c02c0" d="M313.73,114.82c0-.39,0-.79,0-1.19s0-.8,0-1.2H306c0,.4-.06.8-.1,1.2s-.08.79-.13,1.19Z" transform="translate(-54.1 -29.54)"/><path class="e025256f-06a9-4774-a96a-62df5db6c5b2" d="M398.15,113.63c0,.4,0,.8,0,1.19H409.8l-.33-1.19c-.11-.4-.21-.8-.31-1.2h-11C398.15,112.83,398.15,113.23,398.15,113.63Z" transform="translate(-54.1 -29.54)"/><path class="a8cf8438-38ea-4ac9-bcda-3becff4d35d0" d="M314,118.71c-.09-.79-.16-1.58-.22-2.38l-8.39.78c-.13.81-.29,1.63-.46,2.44Z" transform="translate(-54.1 -29.54)"/><path class="f7e3427c-04d6-425c-ac30-4824545248c9" d="M408.31,107.58l-10.46,1q.13,1.17.21,2.37l10.59-1C408.51,109.15,408.4,108.36,408.31,107.58Z" transform="translate(-54.1 -29.54)"/><path class="a7657828-2895-42e9-8e14-67e424947bf3" d="M314.67,122.56c-.17-.78-.32-1.56-.44-2.35l-9.87,1.84c-.22.86-.46,1.71-.71,2.57Z" transform="translate(-54.1 -29.54)"/><path class="ec455124-b4ab-457d-a20c-805ca6576f50" d="M408.07,102.67l-10.87,2c.17.77.32,1.56.44,2.35l10.48-2C408.08,104.28,408.06,103.47,408.07,102.67Z" transform="translate(-54.1 -29.54)"/><path class="b056270f-7f27-436a-b20f-5fec8db6e07e" d="M315.66,126.33c-.24-.76-.45-1.52-.65-2.3l-12.3,3.5c-.31.92-.64,1.85-1,2.76Z" transform="translate(-54.1 -29.54)"/><path class="e682c670-09a4-44ee-9872-5bf2fa168659" d="M396.21,100.93c.24.76.45,1.52.65,2.3L408.18,100c.06-.85.15-1.7.25-2.55Z" transform="translate(-54.1 -29.54)"/><path class="f50bc602-ce65-4bad-9f16-23aed14b9c85" d="M317,130c-.3-.73-.59-1.47-.86-2.23l-15.86,6.15c-.43,1-.87,2.05-1.33,3.07Z" transform="translate(-54.1 -29.54)"/><path class="e5188ee8-c08b-4257-bda2-4dd42e6f3a51" d="M394.86,97.27c.31.73.6,1.47.86,2.22l13.19-5.11q.27-1.39.6-2.79Z" transform="translate(-54.1 -29.54)"/><path class="b65486cc-8293-4771-8e05-833360d7b9d4" d="M393.18,93.75c.38.7.73,1.41,1.07,2.13l16.29-8.11c.32-1.07.67-2.13,1-3.18Z" transform="translate(-54.1 -29.54)"/><path class="eca8e4d2-dcec-4b6e-8d81-2b83d5732889" d="M318.68,133.51c-.37-.7-.73-1.41-1.06-2.14l-20.9,10.41c-.58,1.19-1.16,2.37-1.74,3.53Z" transform="translate(-54.1 -29.54)"/><path class="f0bb3409-aecb-4648-83a3-757171cd5baf" d="M391.19,90.4c.44.66.86,1.34,1.26,2l21.06-13c.51-1.28,1-2.54,1.56-3.77Z" transform="translate(-54.1 -29.54)"/><path class="a580c1b0-bfb0-45fd-a444-d4ae76b54387" d="M320.68,136.86c-.44-.66-.86-1.34-1.26-2l-27.87,17.26c-.7,1.38-1.39,2.74-2.05,4.08Z" transform="translate(-54.1 -29.54)"/><path class="b52f7041-6367-41fe-8e1e-c1cead34870d" d="M323,140c-.5-.62-1-1.25-1.45-1.9l-36.29,27.41c-.55,1.39-1,2.75-1.43,4.07Z" transform="translate(-54.1 -29.54)"/><path class="f01ae681-4fcd-445a-8e75-4bcbe834b224" d="M388.89,87.24c.5.63,1,1.26,1.44,1.91l27.94-21.1c.59-1.45,1.14-2.86,1.61-4.21Z" transform="translate(-54.1 -29.54)"/><path class="a76cf59e-c365-477d-b01e-e770f83a4c6d" d="M325.55,142.94c-.55-.57-1.09-1.16-1.61-1.76l-41.3,37.65a12.41,12.41,0,0,0,.62,2.66Z" transform="translate(-54.1 -29.54)"/><path class="e45aa7c1-8954-472e-a20d-83b1807564ba" d="M386.32,84.32c.55.57,1.09,1.16,1.61,1.76l33.68-30.71a10.4,10.4,0,0,0-.43-2.83Z" transform="translate(-54.1 -29.54)"/><path class="f8da3a49-729c-4fe6-b1da-fde72d095b0e" d="M383.48,81.64c.61.52,1.19,1,1.77,1.61l32.35-35.5a9,9,0,0,0-2.2-1.13Z" transform="translate(-54.1 -29.54)"/><path class="ecef54a7-c64a-4f35-8503-72744d0959cb" d="M328.39,145.62c-.61-.52-1.19-1.06-1.77-1.61L287.5,186.92a11,11,0,0,0,2.23,1.1Z" transform="translate(-54.1 -29.54)"/><path class="afd7c4d4-e075-42d9-8e69-210571940e6d" d="M380.42,79.23c.64.46,1.28.94,1.9,1.44l25.93-34.33c-1.15.19-2.34.46-3.59.79Z" transform="translate(-54.1 -29.54)"/><path class="a4c5b23b-99d6-4d83-a795-fc1a73214c06" d="M331.45,148c-.65-.47-1.28-.95-1.9-1.44L297.67,188.8c1.08-.1,2.19-.25,3.34-.45Z" transform="translate(-54.1 -29.54)"/><path class="f3bf7e6f-d01a-4474-9d6e-b2799ccd6d66" d="M377.14,77.12c.69.4,1.36.82,2,1.26l17.88-28.9c-1.14.39-2.32.78-3.53,1.17Z" transform="translate(-54.1 -29.54)"/><path class="f0b8b6c8-3101-4336-ae8d-2f8319305cbb" d="M334.73,150.14c-.69-.4-1.36-.82-2-1.26l-23,37.2q1.75-.57,3.57-1.23Z" transform="translate(-54.1 -29.54)"/><path class="ec2b4b99-e013-4971-a18c-162bf2e3a88d" d="M338.19,151.94c-.72-.33-1.44-.69-2.14-1.06L320.55,182c1.12-.45,2.24-.92,3.37-1.4Z" transform="translate(-54.1 -29.54)"/><path class="b7842545-2c00-42a8-a205-189fe4f98839" d="M373.68,75.31c.72.34,1.44.69,2.14,1.07l11.91-23.93c-1,.29-2,.57-3.08.83Z" transform="translate(-54.1 -29.54)"/><path class="be082e24-c5a8-4a8c-a761-7a08b2e57b3f" d="M370.07,73.84c.75.26,1.49.55,2.23.86l7.9-20.4c-.9.17-1.82.34-2.75.48Z" transform="translate(-54.1 -29.54)"/><path class="ab450729-4701-4046-8d24-5370d2deea60" d="M341.8,153.42c-.75-.27-1.5-.55-2.23-.86l-9.9,25.55,3.09-1.35Z" transform="translate(-54.1 -29.54)"/><path class="ad738a62-e645-4962-b972-6e4306d7ca33" d="M366.34,72.7c.77.2,1.54.42,2.29.66l5.15-18.1c-.84.09-1.68.15-2.54.2Z" transform="translate(-54.1 -29.54)"/><path class="a7d09259-f780-4341-9281-6a759dc18d80" d="M345.53,154.55c-.77-.19-1.54-.41-2.3-.65l-5.94,20.88,2.83-1.22Z" transform="translate(-54.1 -29.54)"/><path class="f5fb4d5c-f490-49d3-b2b0-8638048b281f" d="M349.35,155.33c-.79-.12-1.57-.27-2.34-.43L343.81,172l2.63-1.08Z" transform="translate(-54.1 -29.54)"/><path class="bf2463ea-4421-416c-8a7e-efe112e22955" d="M362.52,71.92c.79.13,1.57.27,2.34.44L368,55.56c-.8,0-1.6,0-2.42-.05Z" transform="translate(-54.1 -29.54)"/><path class="eb626f98-24ac-48cd-8ad6-5d170a30a093" d="M358.64,71.5c.8,0,1.59.12,2.38.22l1.52-16.43c-.79-.08-1.58-.17-2.37-.28Z" transform="translate(-54.1 -29.54)"/><path class="e8d2df9f-7bd6-4a2f-bbd7-7f86b5ce832f" d="M353.23,155.76c-.8,0-1.59-.12-2.38-.22l-1.31,14.18c.83-.32,1.66-.63,2.48-.92Z" transform="translate(-54.1 -29.54)"/></svg>