<?xml version="1.0" encoding="utf-8"?>
<!-- Generator: Adobe Illustrator 25.2.1, SVG Export Plug-In . SVG Version: 6.00 Build 0)  -->
<!DOCTYPE svg PUBLIC "-//W3C//DTD SVG 1.1//EN" "http://www.w3.org/Graphics/SVG/1.1/DTD/svg11.dtd" [
	<!ENTITY ns_extend "http://ns.adobe.com/Extensibility/1.0/">
	<!ENTITY ns_ai "http://ns.adobe.com/AdobeIllustrator/10.0/">
	<!ENTITY ns_graphs "http://ns.adobe.com/Graphs/1.0/">
	<!ENTITY ns_vars "http://ns.adobe.com/Variables/1.0/">
	<!ENTITY ns_imrep "http://ns.adobe.com/ImageReplacement/1.0/">
	<!ENTITY ns_sfw "http://ns.adobe.com/SaveForWeb/1.0/">
	<!ENTITY ns_custom "http://ns.adobe.com/GenericCustomNamespace/1.0/">
	<!ENTITY ns_adobe_xpath "http://ns.adobe.com/XPath/1.0/">
]>
<svg version="1.1" id="Слой_1" xmlns:x="&ns_extend;" xmlns:i="&ns_ai;" xmlns:graph="&ns_graphs;"
	 xmlns="http://www.w3.org/2000/svg" xmlns:xlink="http://www.w3.org/1999/xlink" x="0px" y="0px" width="1627.9px"
	 height="567.9px" viewBox="0 0 1627.9 567.9" style="enable-background:new 0 0 1627.9 567.9;" xml:space="preserve">
<style type="text/css">
	.Тень{fill:none;}
	.Внешнее_x0020_свечение_x0020_5_x0020_pt_x002E_{fill:none;}
	.Синий_x0020_неон{fill:none;stroke:#8AACDA;stroke-width:7;stroke-linecap:round;stroke-linejoin:round;}
	.Выделение_x0020_желтым{fill:url(#SVGID_1_);stroke:#FFFFFF;stroke-width:0.3629;stroke-miterlimit:1;}
	.Джайв_GS{fill:#FFDD00;}
	.Алиса_GS{fill:#A6D0E4;}
	.st0{fill:#426DA9;}
	.st1{fill:#003A4B;}
	.st2{fill:#003B4D;}
</style>
<metadata>
	<sfw  xmlns="&ns_sfw;">
		<slices></slices>
		<sliceSourceBounds  bottomLeftOrigin="true" height="567.9" width="1627.9" x="-141.3" y="-661.9"></sliceSourceBounds>
	</sfw>
</metadata>
<linearGradient id="SVGID_1_" gradientUnits="userSpaceOnUse" x1="141.2609" y1="-94.0414" x2="141.2609" y2="-95.0414">
	<stop  offset="0" style="stop-color:#656565"/>
	<stop  offset="0.618" style="stop-color:#1B1B1B"/>
	<stop  offset="0.6292" style="stop-color:#545454"/>
	<stop  offset="0.9831" style="stop-color:#3E3E3E"/>
</linearGradient>
<g>
	<g>
		<g>
			<path class="st0" d="M275.5,374.2c0-1.7-1-4.1-2.2-5.3L172.7,268.3c-1.2-1.2-1.2-3.2,0-4.3l90.3-90.4c1.2-1.2,0.8-2.2-0.9-2.2
				h-94.4c-1.7,0-4,1-5.2,2.2l-91.5,91.8l0-90.9c0-1.7-1.4-3.1-3.1-3.1H3.1c-1.7,0-3.1,1.4-3.1,3.1v269.4c0,1.7,1.4,3.1,3.1,3.1
				h269.4c1.7,0,3.1-1.4,3.1-3.1V374.2z M177,376H74c-1.7,0-3.1-1.4-3.1-3.1V266.8l107,107C179.1,375,178.7,376,177,376"/>
			<path class="st0" d="M115.9,483.1c-1.2-1.2-3.2-1.2-4.3,0l-39.7,39.8c-1.2,1.2-1.2,3.2,0,4.3l39.7,39.8c1.2,1.2,3.2,1.2,4.3,0
				l39.8-39.8c1.2-1.2,1.2-3.2,0-4.3L115.9,483.1z"/>
			<path class="st0" d="M71.8,126.3c-1.2,1.2-1.2,3.2,0,4.3l39.8,39.8c1.2,1.2,3.2,1.2,4.3,0l39.8-39.8c1.2-1.2,1.2-3.2,0-4.3
				l-39.8-39.8c-0.6-0.6-1.4-0.9-2.2-0.9c-0.8,0-1.6,0.3-2.2,0.9L71.8,126.3z"/>
			<path class="st0" d="M155.7,45c1.2-1.2,1.2-3.2,0-4.3L115.9,0.9c-1.2-1.2-3.2-1.2-4.3,0L71.8,40.6c-1.2,1.2-1.2,3.2,0,4.3
				l39.8,39.8c0.6,0.6,1.4,0.9,2.2,0.9c0.8,0,1.6-0.3,2.2-0.9L155.7,45z"/>
		</g>
	</g>
	<g>
		<rect x="756.2" y="286.4" class="st1" width="7.5" height="171.6"/>
	</g>
	<g>
		<path class="st2" d="M431.1,372.2c-3.1-3.3-6.8-6.1-11.1-8.6c-4.3-2.4-9.3-4.8-14.8-7l-11.7-4.6c-2.9-1.1-5.7-2.4-8.4-3.8
			c-2.7-1.4-5-3-6.9-4.7c-2-1.7-3.5-3.8-4.7-6.1c-1.2-2.3-1.8-4.9-1.8-7.8c0-7.1,2.4-12.4,7.1-16c4.7-3.6,11.5-5.3,20.3-5.3
			c6.3,0,11.9,0.6,16.8,1.7c4.9,1.1,9.3,2.4,13.1,3.8c2.4-5.7,3.9-11.5,4.6-17.4c-4.6-1.7-9.9-3.1-15.9-4.2c-6-1.1-12.3-1.7-19-1.7
			c-15.6,0-27.7,3.6-36.4,10.8c-8.6,7.2-13,17.1-13,29.8c0,5.3,0.7,9.9,2.1,13.7c1.4,3.8,3.3,7.2,5.7,10.1c2.4,2.9,5.3,5.4,8.7,7.4
			c3.3,2,7,3.9,11.1,5.5l11.9,4.8c4.7,1.9,8.9,3.8,12.4,5.4c3.6,1.7,6.5,3.5,8.9,5.5c2.4,2,4.1,4.4,5.3,7.2c1.2,2.8,1.8,6.1,1.8,10
			c0,8-2.8,14.3-8.5,18.9c-5.6,4.7-14.2,7-25.6,7c-7.2,0-13.4-0.6-18.4-1.9c-5-1.3-9.8-2.7-14.4-4.4c-1.1,3.1-2.2,6.2-3.1,9.4
			c-1,3.2-1.6,6.3-1.9,9.4c2.9,1,5.8,1.9,8.6,2.7c2.8,0.8,5.7,1.5,8.7,2.1c3,0.6,6.2,1,9.7,1.3c3.5,0.3,7.4,0.4,11.7,0.4
			c17.8,0,31.7-4.1,41.6-12.4c9.9-8.3,14.8-19.6,14.8-34c0-6-0.8-11.2-2.4-15.7C436.5,379.4,434.2,375.5,431.1,372.2"/>
		<path class="st2" d="M540.6,301.8c-5.2-3.8-11.3-6.4-18.2-8c-6.9-1.5-14.2-2.3-21.9-2.3c-2.9,0-6,0.1-9.1,0.2
			c-3.1,0.1-6.3,0.3-9.4,0.5c-3.1,0.2-6.1,0.5-9,0.7c-2.9,0.3-5.3,0.6-7.4,0.8v150.6c1.7,0.3,3.5,0.4,5.3,0.5
			c1.9,0.1,3.7,0.1,5.3,0.1c3.8,0,7.3-0.2,10.7-0.6V390c2.4,0.3,4.6,0.5,6.6,0.5c2,0.1,4.4,0.1,7,0.1c7.1,0,14.1-0.8,20.9-2.4
			c6.8-1.6,12.9-4.4,18.3-8.3c5.4-3.9,9.7-9.1,13-15.6c3.3-6.5,4.9-14.6,4.9-24.4c0-9.3-1.5-17.1-4.6-23.3
			C550,310.5,545.9,305.5,540.6,301.8 M532.5,356.2c-2,4.1-4.7,7.4-8,9.7c-3.4,2.4-7.2,4-11.4,4.9c-4.3,0.9-8.5,1.4-12.9,1.4
			c-3.2,0-5.6-0.1-7.3-0.2c-1.7-0.1-3.6-0.4-5.9-0.6v-60.8c3.9-0.4,8.4-0.6,13.6-0.6c5,0,9.7,0.5,14,1.5c4.3,1,8,2.7,11.1,5
			c3.1,2.4,5.5,5.5,7.2,9.4c1.7,3.9,2.6,8.7,2.6,14.4C535.5,346.8,534.5,352.1,532.5,356.2"/>
		<path class="st2" d="M665.3,425.7c-4.7,1-10,1.5-15.9,1.5c-7.5,0-14.3-1.2-20.4-3.6c-6.1-2.4-11.3-5.9-15.6-10.7
			c-4.3-4.7-7.7-10.7-10-18c-2.4-7.3-3.6-15.8-3.6-25.7c0-19.4,4.2-34.2,12.7-44.5c8.4-10.3,20.2-15.5,35.4-15.5
			c3.5,0,6.6,0.1,9.3,0.3c2.7,0.2,5.2,0.5,7.4,0.9c2.2,0.4,4.3,0.9,6.3,1.5c2,0.6,4,1.2,6.1,1.9c1.3-3.1,2.3-6,3.2-8.7
			c0.9-2.7,1.5-5.7,1.8-8.9c-4.5-1.5-9.5-2.9-15.3-4c-5.7-1.1-12.5-1.7-20.5-1.7c-10.7,0-20.4,1.8-29.1,5.5c-8.6,3.7-16,9-22,15.8
			c-6,6.8-10.6,15.1-13.8,24.8c-3.2,9.7-4.8,20.5-4.8,32.5c0,11.9,1.6,22.5,4.8,32c3.2,9.5,7.8,17.5,13.8,24.1
			c6,6.6,13.3,11.7,22.1,15.3c8.7,3.6,18.5,5.3,29.4,5.3c7.1,0,13.7-0.6,19.9-1.7c6.1-1.1,12.1-2.9,18-5.4
			c-0.8-5.6-2.8-11.4-5.9-17.4C674.5,423.3,670,424.7,665.3,425.7"/>
	</g>
	<g>
		<path class="st2" d="M1061.3,354.4c-3.5-4.2-7.9-7.4-13-9.8c-5.2-2.4-11.2-3.6-18.1-3.6c-8,0-15,1.4-20.9,4.3
			c-5.9,2.8-10.8,6.7-14.7,11.5c-3.9,4.8-6.8,10.5-8.7,17.1c-1.9,6.5-2.8,13.6-2.8,21.1c0,7.7,1,14.7,2.9,21.1
			c1.9,6.4,5,12,9.2,16.6c4.2,4.7,9.6,8.3,16.1,10.9c6.5,2.6,14.3,3.9,23.4,3.9c6.2,0,11.9-0.5,17-1.4c5.1-0.9,9.8-2.3,14.1-4.2
			c-0.1-2.8-0.5-5.6-1.2-8.4c-0.6-2.8-1.5-5.3-2.5-7.2c-8.3,3.3-17.1,4.9-26.3,4.9c-10.5,0-18.5-2.6-23.9-7.7
			c-5.4-5.1-8.2-13.3-8.5-24.4h68c0.1-1.5,0.3-3.2,0.4-5.3c0.1-2.1,0.2-4,0.2-5.9c0-6.7-0.9-13-2.7-18.7
			C1067.4,363.5,1064.8,358.6,1061.3,354.4z M1003.6,384.4c0.9-8.7,3.5-15.5,7.7-20.4c4.2-4.9,10.3-7.3,18.2-7.3
			c4,0,7.5,0.8,10.4,2.3c2.9,1.5,5.3,3.5,7.2,6c1.9,2.5,3.3,5.5,4.3,8.8c1,3.4,1.5,6.9,1.5,10.6H1003.6z"/>
		<path class="st2" d="M1172.9,369.3c-1.8-5.8-4.5-10.7-8-14.9c-3.5-4.2-7.9-7.4-13.1-9.8c-5.2-2.4-11.2-3.6-18.1-3.6
			c-8,0-15,1.4-20.9,4.3c-5.9,2.8-10.8,6.7-14.7,11.5c-3.9,4.8-6.8,10.5-8.7,17.1c-1.9,6.5-2.8,13.6-2.8,21.1c0,7.7,1,14.7,2.9,21.1
			c1.9,6.4,5,12,9.3,16.6c4.2,4.7,9.6,8.3,16.1,10.9c6.5,2.6,14.3,3.9,23.4,3.9c6.2,0,11.9-0.5,17-1.4c5.1-0.9,9.8-2.3,14.1-4.2
			c-0.1-2.8-0.5-5.6-1.2-8.4c-0.6-2.8-1.5-5.3-2.5-7.2c-8.3,3.3-17.1,4.9-26.3,4.9c-10.5,0-18.5-2.6-23.9-7.7
			c-5.4-5.1-8.2-13.3-8.5-24.4h68c0.1-1.5,0.3-3.2,0.4-5.3c0.1-2.1,0.2-4,0.2-5.9C1175.6,381.3,1174.7,375,1172.9,369.3z
			 M1107.3,384.4c0.9-8.7,3.5-15.5,7.7-20.4c4.2-4.9,10.3-7.3,18.2-7.3c4,0,7.5,0.8,10.4,2.3c2.9,1.5,5.3,3.5,7.2,6
			c1.9,2.5,3.3,5.5,4.3,8.8c1,3.4,1.5,6.9,1.5,10.6H1107.3z"/>
		<path class="st2" d="M976.3,343.2c-0.8-0.1-1.7-0.2-2.8-0.3c-1.1-0.1-2.2-0.1-3.2-0.1c-7,0-12.8,1.7-17.2,5
			c-4.5,3.3-8.1,7.2-10.8,11.7c0-2.3-0.2-5-0.6-8.2c-0.4-3.2-0.8-5.9-1.2-7.8c-1.2-0.3-2.5-0.5-3.9-0.6c-1.4-0.1-2.9-0.2-4.3-0.2
			c-1.4,0-2.8,0.1-4.1,0.2c-1.3,0.1-2.7,0.3-4.1,0.6v101.7c1.6,0.3,3.2,0.5,5,0.6c1.7,0.1,3.3,0.2,4.8,0.2c1.4,0,3-0.1,4.8-0.2
			c1.8-0.1,3.3-0.3,4.8-0.6v-50.6c0-6.9,0.7-12.5,2.2-16.9c1.5-4.4,3.5-7.8,6-10.3c2.5-2.5,5.4-4.3,8.6-5.3c3.2-1,6.5-1.5,10-1.5
			h2.6c1.1,0,2.2,0.1,3.2,0.4c0.3-1.6,0.5-3.2,0.7-5c0.2-1.7,0.3-3.4,0.3-5c0-1.5-0.1-2.8-0.2-4.2
			C976.8,345.7,976.6,344.4,976.3,343.2z"/>
		<path class="st2" d="M908.3,302.6h-73.2v142.5c1.4,0.3,3,0.5,4.8,0.6c1.8,0.1,3.5,0.2,5.2,0.2c1.8,0,3.5-0.1,5.2-0.2
			c1.6-0.1,3.2-0.3,4.8-0.6v-65.2h44.6c0.3-1.5,0.5-2.9,0.6-4.5c0.1-1.5,0.2-3,0.2-4.5c0-1.5-0.1-2.9-0.2-4.5
			c-0.1-1.5-0.3-3-0.6-4.5H855v-41.8h53.3c0.3-1.3,0.5-2.8,0.6-4.4c0.1-1.6,0.2-3.1,0.2-4.6c0-1.5-0.1-2.9-0.2-4.5
			C908.8,305.3,908.6,303.9,908.3,302.6z"/>
		<path class="st2" d="M1422.8,373.3c-1.9-6.5-4.8-12.1-8.7-16.8c-3.9-4.7-8.8-8.5-14.6-11.3c-5.8-2.8-12.7-4.2-20.4-4.2
			c-7.8,0-14.6,1.4-20.4,4.2c-5.8,2.8-10.7,6.5-14.6,11.3c-3.9,4.8-6.8,10.4-8.7,16.8c-1.9,6.5-2.8,13.5-2.8,21
			c0,7.5,0.9,14.5,2.8,21c1.9,6.5,4.8,12.1,8.7,16.8c3.9,4.8,8.8,8.5,14.6,11.2c5.8,2.7,12.6,4.1,20.4,4.1c7.8,0,14.6-1.4,20.4-4.1
			c5.8-2.7,10.7-6.4,14.6-11.2c3.9-4.7,6.8-10.4,8.7-16.8c1.9-6.5,2.8-13.5,2.8-21C1425.6,386.8,1424.7,379.8,1422.8,373.3z
			 M1398.9,421.9c-4.3,6.6-10.9,9.9-19.9,9.9c-8.9,0-15.5-3.3-19.8-9.9c-4.2-6.6-6.3-15.8-6.3-27.6c0-11.8,2.1-20.9,6.3-27.5
			c4.2-6.5,10.8-9.8,19.8-9.8c9,0,15.6,3.3,19.9,9.8c4.3,6.5,6.4,15.7,6.4,27.5C1405.3,406.1,1403.2,415.3,1398.9,421.9z"/>
		<path class="st2" d="M1326.6,302.6h-90.9c-0.3,1.3-0.4,2.8-0.6,4.4c-0.1,1.6-0.2,3.1-0.2,4.6c0,1.5,0.1,3,0.2,4.6
			c0.1,1.6,0.3,3,0.6,4.2h61.7l-70.5,123.1l1.2,1.8h94.8c0.3-1.2,0.4-2.6,0.6-4.2c0.1-1.6,0.2-3.1,0.2-4.6c0-1.5-0.1-3-0.2-4.7
			c-0.1-1.7-0.3-3.1-0.6-4.3h-65.6l70.7-123.1L1326.6,302.6z"/>
		<path class="st2" d="M1625.2,369.3c-1.8-5.8-4.5-10.7-8-14.9c-3.5-4.2-7.9-7.4-13-9.8c-5.2-2.4-11.2-3.6-18.1-3.6
			c-8,0-15,1.4-20.9,4.3c-5.9,2.8-10.8,6.7-14.7,11.5c-3.9,4.8-6.8,10.5-8.7,17.1c-1.9,6.5-2.8,13.6-2.8,21.1c0,7.7,1,14.7,2.9,21.1
			c1.9,6.4,5,12,9.2,16.6c4.2,4.7,9.6,8.3,16.1,10.9c6.5,2.6,14.3,3.9,23.4,3.9c6.2,0,11.9-0.5,17-1.4c5.1-0.9,9.8-2.3,14.1-4.2
			c-0.1-2.8-0.5-5.6-1.2-8.4c-0.7-2.8-1.5-5.3-2.5-7.2c-8.3,3.3-17.1,4.9-26.3,4.9c-10.5,0-18.5-2.6-23.9-7.7
			c-5.4-5.1-8.2-13.3-8.5-24.4h68c0.1-1.5,0.3-3.2,0.4-5.3c0.1-2.1,0.2-4,0.2-5.9C1627.9,381.3,1627,375,1625.2,369.3z
			 M1559.6,384.4c0.9-8.7,3.5-15.5,7.7-20.4c4.2-4.9,10.3-7.3,18.2-7.3c4,0,7.5,0.8,10.4,2.3c2.9,1.5,5.3,3.5,7.2,6
			c1.9,2.5,3.3,5.5,4.3,8.8c1,3.4,1.5,6.9,1.5,10.6H1559.6z"/>
		<path class="st2" d="M1491.7,341c-4,0-7.7,0.6-11.1,1.7c-3.4,1.1-6.4,2.6-8.9,4.4c-2.6,1.8-4.9,3.8-6.9,6c-2,2.3-3.7,4.5-5,6.7
			c0-2.3-0.2-5.1-0.6-8.4c-0.4-3.4-0.8-6-1.2-8c-1.4-0.3-2.8-0.5-4-0.6c-1.2-0.1-2.6-0.2-4-0.2c-1.4,0-2.8,0.1-4.2,0.2
			c-1.4,0.1-2.8,0.3-4.2,0.6v101.7c1.4,0.3,3,0.5,4.9,0.6c1.8,0.1,3.4,0.2,4.9,0.2c1.4,0,3-0.1,4.8-0.2c1.8-0.1,3.4-0.3,4.8-0.6
			v-51.6c0-6.2,0.8-11.5,2.3-15.9c1.5-4.4,3.5-8,5.9-10.8c2.5-2.8,5.3-4.8,8.6-6.1c3.2-1.3,6.7-2,10.3-2c6.2,0,10.8,2.2,13.6,6.6
			c2.9,4.4,4.3,11.3,4.3,20.7v59.1c1.4,0.3,3,0.5,4.8,0.6c1.8,0.1,3.3,0.2,4.8,0.2c1.4,0,3-0.1,4.9-0.2c1.8-0.1,3.4-0.3,4.9-0.6
			v-64.4c0-13.1-2.7-23-8.2-29.7C1511.6,344.4,1503.1,341,1491.7,341z"/>
	</g>
</g>
<g>
	<path class="st2" d="M885.3,515h6.9l-12.4,44h-7.4l-5.6-20.6c-1.5-5.8-2.8-10.9-3.8-15.3c-1,4.4-2.3,9.5-3.8,15.3l-5.6,20.6h-7.4
		l-12.4-44h6.9l5.4,20c1.9,7.4,3.3,12.8,4.1,16.3c2-8.4,3.4-13.9,4-16.4l5.3-19.8h7l5.3,19.8c0.7,2.5,2,8,4,16.4
		c0.8-3.4,2.1-8.8,4.1-16.3L885.3,515z"/>
	<path class="st2" d="M926,515h6.6v44H926v-19.6h-22.7v19.6h-6.6v-44h6.6v18.4H926V515z"/>
	<path class="st2" d="M971.7,521h-24.8v12.4h22.4v5.8h-22.4v13.9h24.6v5.9h-31.2v-44h31.4V521z"/>
	<path class="st2" d="M1010.7,553.7c0.2,2.3,0.7,4.1,1.5,5.4h-6.8c-0.8-1.2-1.2-3-1.3-5.6l-0.2-4.7c-0.1-2.9-0.8-4.9-1.9-6.1
		c-1.2-1.2-3-1.7-5.5-1.7h-12.8v18.1H977v-44h19.2c4.7,0,8.3,1.1,11.1,3.2s4.1,5.1,4.1,8.9c0,2.7-0.6,4.9-1.9,6.8
		c-1.3,1.8-3.1,3.1-5.5,3.9c2.2,0.6,3.8,1.7,4.7,3.2c1,1.5,1.5,3.4,1.6,5.8L1010.7,553.7z M996.4,535.4c2.5,0,4.5-0.6,6-1.9
		c1.5-1.3,2.2-3.2,2.2-5.7c0-2.4-0.8-4.2-2.3-5.3c-1.5-1.2-3.7-1.8-6.4-1.8h-12.2v14.7H996.4z"/>
	<path class="st2" d="M1048.9,521h-24.8v12.4h22.4v5.8h-22.4v13.9h24.6v5.9h-31.2v-44h31.4V521z"/>
	<path class="st2" d="M1099.5,515h15.6v44h-10v-12.9c0-8.2,0.1-15.3,0.4-21.3c-0.8,3-1.8,6.3-3,10l-7.6,24.2h-8.5l-7.6-24.2
		c-1.3-4.2-2.2-7.5-2.9-10c0.2,6.3,0.3,13.3,0.3,21.2v12.9h-10v-44h15.6l5.8,18.9c1,3.3,2,7,3,10.9c1-3.9,2-7.6,3-11.1L1099.5,515z"
		/>
	<path class="st2" d="M1142.5,560.1c-6.8,0-12.2-2.1-16.4-6.3c-4.1-4.2-6.2-9.8-6.2-16.7c0-6.9,2.1-12.5,6.2-16.7
		c4.1-4.2,9.6-6.3,16.4-6.3c6.7,0,12.2,2.1,16.3,6.3c4.2,4.2,6.2,9.8,6.2,16.7c0,6.9-2.1,12.5-6.2,16.7
		C1154.7,558,1149.2,560.1,1142.5,560.1z M1134,547.3c2.1,2.5,5,3.7,8.5,3.7s6.4-1.2,8.5-3.7c2.1-2.5,3.2-5.9,3.2-10.2
		c0-4.3-1.1-7.7-3.2-10.2c-2.1-2.5-5-3.7-8.5-3.7s-6.4,1.2-8.5,3.7c-2.1,2.5-3.2,5.9-3.2,10.2C1130.8,541.4,1131.9,544.8,1134,547.3
		z"/>
	<path class="st2" d="M1206.1,554.3c0.1,2,0.5,3.6,1.2,4.8h-10.8c-0.6-1.2-1-2.8-1.1-4.8l-0.2-4.9c-0.1-2.5-0.6-4.2-1.7-5.1
		c-1.1-0.9-2.6-1.3-4.8-1.3h-8.5v16.2h-10.5v-44h20.8c5.3,0,9.3,1.2,11.9,3.5s4,5.4,4,9.2c0,5.1-2.4,8.6-7.1,10.4
		c2.3,0.8,3.9,2,4.8,3.6c0.8,1.6,1.3,3.7,1.5,6.3L1206.1,554.3z M1180.3,535h9.2c2,0,3.6-0.5,4.7-1.5c1.1-1,1.7-2.5,1.7-4.4
		c0-3.8-2.2-5.8-6.6-5.8h-9V535z"/>
	<path class="st2" d="M1245.4,524.4h-23.2v8h21.1v8.8h-21.1v8.6h23.1v9.3h-33.6v-44h33.6V524.4z"/>
	<path class="st2" d="M1263.3,559.1v-44h6.6v44H1263.3z"/>
	<path class="st2" d="M1293.9,560.1c-5.7,0-10.2-1.3-13.5-3.9c-3.3-2.6-4.9-6.5-5-11.6h6.6c0.1,6.6,4.1,9.9,12,9.9
		c3.3,0,5.8-0.6,7.5-1.9c1.8-1.3,2.6-3.1,2.6-5.5c0-1.9-0.7-3.4-2.2-4.5c-1.5-1.1-4.1-2-7.8-2.8l-3.8-0.8c-4.4-0.9-7.8-2.3-10.1-4.3
		c-2.4-2-3.6-4.9-3.6-8.7c0-3.6,1.4-6.5,4.2-8.7s6.6-3.2,11.4-3.2c6,0,10.4,1.3,13.2,3.8c2.8,2.6,4.2,5.9,4.3,10.1h-6.6
		c-0.2-2.8-1.1-4.8-2.8-6.2c-1.6-1.4-4.3-2.1-8.1-2.1c-2.9,0-5.1,0.5-6.6,1.6c-1.5,1.1-2.3,2.6-2.3,4.5c0,2,0.7,3.5,2,4.6
		c1.3,1.1,3.9,2,7.6,2.8l3.8,0.8c5.1,1.1,8.7,2.6,10.9,4.7c2.2,2,3.3,4.8,3.3,8.1c0,4.1-1.5,7.3-4.5,9.6
		C1303.5,558.9,1299.3,560.1,1293.9,560.1z"/>
	<path class="st2" d="M1347.5,515c4.9,0,8.6,1.3,11.2,3.8c2.6,2.5,3.9,5.9,3.9,10.1c0,4.2-1.3,7.6-3.9,10.1s-6.3,3.8-11.2,3.8h-12.1
		v16.3h-6.6v-44H1347.5z M1347.4,537c2.8,0,4.9-0.7,6.3-2.1c1.4-1.4,2.2-3.4,2.2-6s-0.7-4.6-2.2-6c-1.4-1.4-3.5-2.1-6.3-2.1h-12V537
		H1347.4z"/>
	<path class="st2" d="M1387.8,560.1c-6.5,0-11.7-2.1-15.6-6.3c-3.9-4.2-5.9-9.8-5.9-16.7s2-12.4,5.9-16.7c3.9-4.2,9.1-6.3,15.6-6.3
		c6.4,0,11.6,2.1,15.6,6.3c3.9,4.2,5.9,9.8,5.9,16.7s-2,12.4-5.9,16.7C1399.4,557.9,1394.2,560.1,1387.8,560.1z M1387.8,554.1
		c4.4,0,7.9-1.5,10.6-4.6c2.7-3.1,4-7.2,4-12.5s-1.3-9.4-4-12.5c-2.7-3.1-6.2-4.6-10.6-4.6c-4.5,0-8,1.5-10.7,4.6
		c-2.7,3.1-4,7.2-4,12.5s1.3,9.4,4,12.5C1379.8,552.6,1383.3,554.1,1387.8,554.1z"/>
	<path class="st2" d="M1430.9,560.1c-5.7,0-10.2-1.3-13.5-3.9c-3.3-2.6-4.9-6.5-5-11.6h6.6c0.1,6.6,4.1,9.9,12,9.9
		c3.3,0,5.8-0.6,7.5-1.9c1.8-1.3,2.6-3.1,2.6-5.5c0-1.9-0.7-3.4-2.2-4.5c-1.5-1.1-4.1-2-7.8-2.8l-3.8-0.8c-4.4-0.9-7.8-2.3-10.1-4.3
		c-2.4-2-3.6-4.9-3.6-8.7c0-3.6,1.4-6.5,4.2-8.7s6.6-3.2,11.4-3.2c6,0,10.4,1.3,13.2,3.8c2.8,2.6,4.2,5.9,4.3,10.1h-6.6
		c-0.2-2.8-1.1-4.8-2.8-6.2c-1.6-1.4-4.3-2.1-8.1-2.1c-2.9,0-5.1,0.5-6.6,1.6c-1.5,1.1-2.3,2.6-2.3,4.5c0,2,0.7,3.5,2,4.6
		c1.3,1.1,3.9,2,7.6,2.8l3.8,0.8c5.1,1.1,8.7,2.6,10.9,4.7c2.2,2,3.3,4.8,3.3,8.1c0,4.1-1.5,7.3-4.5,9.6
		C1440.4,558.9,1436.2,560.1,1430.9,560.1z"/>
	<path class="st2" d="M1470,560.1c-5.7,0-10.2-1.3-13.5-3.9s-4.9-6.5-5-11.6h6.6c0.1,6.6,4.1,9.9,12,9.9c3.3,0,5.8-0.6,7.5-1.9
		c1.8-1.3,2.6-3.1,2.6-5.5c0-1.9-0.7-3.4-2.2-4.5c-1.5-1.1-4-2-7.8-2.8l-3.8-0.8c-4.4-0.9-7.8-2.3-10.1-4.3c-2.4-2-3.6-4.9-3.6-8.7
		c0-3.6,1.4-6.5,4.2-8.7c2.8-2.2,6.6-3.2,11.4-3.2c6,0,10.4,1.3,13.2,3.8c2.8,2.6,4.2,5.9,4.3,10.1h-6.6c-0.2-2.8-1.1-4.8-2.8-6.2
		c-1.6-1.4-4.3-2.1-8.1-2.1c-2.9,0-5.1,0.5-6.6,1.6c-1.5,1.1-2.3,2.6-2.3,4.5c0,2,0.7,3.5,2,4.6c1.3,1.1,3.9,2,7.6,2.8l3.8,0.8
		c5.1,1.1,8.7,2.6,10.9,4.7c2.2,2,3.3,4.8,3.3,8.1c0,4.1-1.5,7.3-4.5,9.6S1475.4,560.1,1470,560.1z"/>
	<path class="st2" d="M1492.4,559.1v-44h6.6v44H1492.4z"/>
	<path class="st2" d="M1533.6,536.1c2.6,0.9,4.5,2.4,5.7,4.2s1.9,4,1.9,6.3c0,3.8-1.3,6.9-3.8,9.1c-2.5,2.2-6.2,3.4-10.9,3.4h-19.8
		v-44h19c4.6,0,8,1.1,10.3,3.2c2.3,2.2,3.5,4.9,3.5,8.2C1539.5,530.8,1537.5,534,1533.6,536.1z M1525.2,520.7h-11.9v13.2h11.9
		c2.6,0,4.5-0.6,5.8-1.8c1.3-1.2,1.9-2.9,1.9-5.1c0-1.9-0.7-3.5-2-4.6C1529.7,521.3,1527.8,520.7,1525.2,520.7z M1526.2,553.4
		c2.8,0,4.9-0.6,6.3-1.8s2.1-2.9,2.1-5.1c0-4.7-2.8-7-8.4-7h-12.9v14H1526.2z"/>
	<path class="st2" d="M1553.1,553.1h21.6v5.9h-28.2v-44h6.6V553.1z"/>
	<path class="st2" d="M1611.1,521h-24.8v12.4h22.4v5.8h-22.4v13.9h24.6v5.9h-31.2v-44h31.4V521z"/>
</g>
</svg>
